<svg xmlns="http://www.w3.org/2000/svg" xmlns:xlink="http://www.w3.org/1999/xlink" width="63" height="63" viewBox="0 0 63 63">
  <defs>
    <clipPath id="clip-path">
      <rect id="Rectangle_274" data-name="Rectangle 274" width="39.796" height="42.638" fill="#fff" stroke="#fff" stroke-width="0.15"/>
    </clipPath>
  </defs>
  <g id="Group_3259" data-name="Group 3259" transform="translate(-1081.805 -294.555)">
    <rect id="Rectangle_248" data-name="Rectangle 248" width="63" height="63" rx="4" transform="translate(1081.805 294.555)" fill="#a2ffc1" opacity="0"/>
    <g id="Group_3266" data-name="Group 3266" transform="translate(1091.586 304.736)">
      <g id="Group_3265" data-name="Group 3265" clip-path="url(#clip-path)">
        <path id="Path_10639" data-name="Path 10639" d="M7.1,31.978v1.4H1.456c-.014.159-.032.272-.033.385,0,1.273-.007,2.546,0,3.819a3.552,3.552,0,1,0,7.1,0q.008-17.632,0-35.264A2.139,2.139,0,0,1,10.238.048,2.992,2.992,0,0,1,10.856,0q13.3,0,26.6,0A2.145,2.145,0,0,1,39.8,2.354q0,17.543,0,35.086a4.98,4.98,0,0,1-5.2,5.2q-14.7,0-29.4,0A4.982,4.982,0,0,1,0,37.437q0-2.265,0-4.53c0-.694.237-.928.936-.929q2.887,0,5.774,0Zm1.375,9.238H34.515a3.576,3.576,0,0,0,3.859-3.883q0-17.407,0-34.813c0-.914-.18-1.1-1.078-1.1H11.053c-.933,0-1.1.173-1.1,1.116q0,17.384-.007,34.769a8.311,8.311,0,0,1-.155,1.538,4.917,4.917,0,0,1-1.316,2.372" transform="translate(0 0)" fill="#fff" stroke="#fff" stroke-width="0.15"/>
        <path id="Path_10640" data-name="Path 10640" d="M207.53,29.835c.562,0,1.124-.011,1.686,0a.709.709,0,0,1,.625,1.167c-.305.489-.626.969-.962,1.437a.46.46,0,0,0-.026.6.3.3,0,0,1,.018.04c.6,1.225.6,1.224-.449,2.063-.937.747-1.875,1.491-2.806,2.245a.748.748,0,0,1-.968.138.763.763,0,0,1-.256-.945c.18-.655.344-1.315.48-1.98a.659.659,0,0,0-.135-.488c-.266-.315-.578-.592-.868-.887a.72.72,0,0,1-.095-1c.444-.663.858-1.349,1.345-1.98a1.227,1.227,0,0,1,.771-.391,14.839,14.839,0,0,1,1.64-.018m.5,4.2c-1.224-1.144-.606-2.188.292-3.245a6.5,6.5,0,0,1-.99-.007,1.81,1.81,0,0,0-2.115,1.107c-.252.471-.279.722.134,1.043.795.616,1.336,1.336.84,2.411-.006.014.032.049.071.1l1.767-1.413" transform="translate(-179.452 -26.282)" fill="#fff" stroke="#fff" stroke-width="0.15"/>
        <path id="Path_10641" data-name="Path 10641" d="M158.7,37.652a2.8,2.8,0,0,1-2.672-3.683,15.73,15.73,0,0,1,2.11-3.833.666.666,0,0,1,1.131,0,15.758,15.758,0,0,1,2.107,3.835,2.8,2.8,0,0,1-2.676,3.68m.1-5.756-.2,0c-.409.831-.849,1.649-1.216,2.5a1.28,1.28,0,0,0,.491,1.564,1.4,1.4,0,0,0,1.657,0,1.282,1.282,0,0,0,.485-1.566c-.367-.848-.807-1.665-1.216-2.5" transform="translate(-137.377 -26.283)" fill="#fff" stroke="#fff" stroke-width="0.15"/>
        <rect id="Rectangle_262" data-name="Rectangle 262" width="7.05" height="1.37" transform="translate(28.447 37.685)" fill="#fff" stroke="#fff" stroke-width="0.15"/>
        <rect id="Rectangle_263" data-name="Rectangle 263" width="5.62" height="1.382" transform="translate(24.909 34.836)" fill="#fff" stroke="#fff" stroke-width="0.15"/>
        <rect id="Rectangle_264" data-name="Rectangle 264" width="8.487" height="1.352" transform="translate(17.796 26.06)" fill="#fff" stroke="#fff" stroke-width="0.15"/>
        <rect id="Rectangle_265" data-name="Rectangle 265" width="7.761" height="1.368" transform="translate(12.813 22.024)" fill="#fff" stroke="#fff" stroke-width="0.15"/>
        <rect id="Rectangle_266" data-name="Rectangle 266" width="4.918" height="1.367" transform="translate(17.787 18.002)" fill="#fff" stroke="#fff" stroke-width="0.15"/>
        <rect id="Rectangle_267" data-name="Rectangle 267" width="4.224" height="1.362" transform="translate(22.04 22.034)" fill="#fff" stroke="#fff" stroke-width="0.15"/>
        <rect id="Rectangle_268" data-name="Rectangle 268" width="3.497" height="1.367" transform="translate(12.828 18.009)" fill="#fff" stroke="#fff" stroke-width="0.15"/>
        <rect id="Rectangle_269" data-name="Rectangle 269" width="3.502" height="1.379" transform="translate(32.001 17.995)" fill="#fff" stroke="#fff" stroke-width="0.15"/>
        <rect id="Rectangle_270" data-name="Rectangle 270" width="3.495" height="1.373" transform="translate(32.012 22.029)" fill="#fff" stroke="#fff" stroke-width="0.15"/>
        <rect id="Rectangle_271" data-name="Rectangle 271" width="3.497" height="1.366" transform="translate(12.812 26.046)" fill="#fff" stroke="#fff" stroke-width="0.15"/>
        <rect id="Rectangle_272" data-name="Rectangle 272" width="3.494" height="1.383" transform="translate(32.013 26.041)" fill="#fff" stroke="#fff" stroke-width="0.15"/>
        <rect id="Rectangle_273" data-name="Rectangle 273" width="3.497" height="1.367" transform="translate(31.999 34.844)" fill="#fff" stroke="#fff" stroke-width="0.15"/>
      </g>
    </g>
  </g>
</svg>
