<svg id="Group_3331" data-name="Group 3331" xmlns="http://www.w3.org/2000/svg" xmlns:xlink="http://www.w3.org/1999/xlink" width="35.473" height="35.47" viewBox="0 0 35.473 35.47">
  <defs>
    <clipPath id="clip-path">
      <rect id="Rectangle_2653" data-name="Rectangle 2653" width="35.473" height="35.47" fill="#333"/>
    </clipPath>
  </defs>
  <g id="Group_3330" data-name="Group 3330" clip-path="url(#clip-path)">
    <path id="Path_10674" data-name="Path 10674" d="M35.473,3.187v29.1c-.06.207-.115.416-.182.621a3.686,3.686,0,0,1-3.6,2.564q-7.066,0-14.132-.006c-4.561,0-9.121.016-13.682-.006A4.253,4.253,0,0,1,2.2,35.128,3.535,3.535,0,0,1,0,31.666Q-.007,24.358,0,17.05,0,10.416,0,3.783A3.688,3.688,0,0,1,2.567.18C2.772.114,2.981.06,3.188,0h29.1c.073.024.145.054.22.072a3.668,3.668,0,0,1,2.786,2.5c.071.2.121.412.181.618M34,16.973v-.347q0-6.371,0-12.742a2.241,2.241,0,0,0-2.426-2.412q-6.354,0-12.707,0c-.121,0-.243.01-.363.016V16.973Zm-17.031,0V1.472h-.36q-6.353,0-12.707,0A2.245,2.245,0,0,0,1.474,3.916q0,6.336,0,12.672v.386ZM1.474,18.5v.35q0,6.371,0,12.741A2.241,2.241,0,0,0,3.9,34q6.353,0,12.707,0c.121,0,.242-.011.359-.017V18.5ZM18.5,34H31.523A2.256,2.256,0,0,0,34,31.533q0-6.319,0-12.638V18.5H18.5Z" transform="translate(0)" fill="#333"/>
    <path id="Path_10675" data-name="Path 10675" d="M251.264,97.277c-.958,0-1.916.007-2.874,0a.72.72,0,0,1-.765-.877.706.706,0,0,1,.713-.587q2.961-.01,5.922,0a.731.731,0,1,1-.017,1.461c-.993.011-1.985,0-2.978,0Z" transform="translate(-224.694 -86.938)" fill="#333"/>
    <path id="Path_10676" data-name="Path 10676" d="M58.961,68.3c-.762,0-1.475.008-2.188,0a.7.7,0,0,1-.751-.762.72.72,0,0,1,.781-.7c.7-.007,1.4,0,2.158,0,0-.512,0-1,0-1.494,0-.231-.009-.462,0-.692a.741.741,0,1,1,1.48.011c.016.588,0,1.177.005,1.765,0,.124,0,.248,0,.41.733,0,1.434,0,2.135,0a.735.735,0,0,1,.792.578.713.713,0,0,1-.716.886c-.6.016-1.2.005-1.8.006h-.411c0,.67,0,1.3,0,1.933,0,.681-.256,1.03-.751,1.026s-.738-.35-.739-1.038c0-.622,0-1.244,0-1.923" transform="translate(-50.837 -57.965)" fill="#333"/>
    <path id="Path_10677" data-name="Path 10677" d="M66.886,259.429c-.615.624-1.161,1.189-1.719,1.74a.694.694,0,0,1-.943.082.712.712,0,0,1-.221-.923,1.607,1.607,0,0,1,.266-.316c.512-.514,1.028-1.025,1.589-1.584-.5-.485-.973-.949-1.449-1.415-.107-.1-.217-.208-.313-.323a.7.7,0,0,1,.056-.995.69.69,0,0,1,1,0c.509.486,1,.991,1.5,1.487.065.064.133.124.237.221.5-.5.992-1,1.486-1.5s.865-.55,1.22-.205.3.747-.2,1.246l-1.5,1.5c.558.551,1.112,1.071,1.627,1.627a.937.937,0,0,1,.269.659,1.015,1.015,0,0,1-.446.593.6.6,0,0,1-.758-.145q-.715-.7-1.421-1.42c-.088-.089-.161-.194-.276-.335" transform="translate(-57.998 -231.837)" fill="#333"/>
    <path id="Path_10678" data-name="Path 10678" d="M251.335,256.924c-.912,0-1.824,0-2.736,0a1.776,1.776,0,0,1-.411-.04.729.729,0,0,1,.012-1.41,1.491,1.491,0,0,1,.343-.036q2.788,0,5.575,0c.511,0,.821.213.888.595.09.512-.249.887-.832.892-.946.008-1.893,0-2.84,0" transform="translate(-224.728 -231.793)" fill="#333"/>
    <path id="Path_10679" data-name="Path 10679" d="M251.334,304.83c-.912,0-1.824,0-2.736,0a1.777,1.777,0,0,1-.411-.04.729.729,0,0,1,.012-1.41,1.491,1.491,0,0,1,.343-.036q2.788,0,5.576,0c.511,0,.821.213.888.595.091.512-.249.887-.832.891-.946.008-1.893,0-2.84,0" transform="translate(-224.727 -275.265)" fill="#333"/>
  </g>
</svg>
