<svg xmlns="http://www.w3.org/2000/svg" xmlns:xlink="http://www.w3.org/1999/xlink" width="58" height="58" viewBox="0 0 58 58">
  <defs>
    <clipPath id="clip-path">
      <rect id="Rectangle_250" data-name="Rectangle 250" width="41.721" height="31.274" fill="#deb01d"/>
    </clipPath>
  </defs>
  <g id="Group_3228" data-name="Group 3228" transform="translate(-1081.805 -294.805)">
    <rect id="Rectangle_248" data-name="Rectangle 248" width="58" height="58" rx="4" transform="translate(1081.805 294.805)" fill="#a2ffc1" opacity="0"/>
    <g id="Group_3238" data-name="Group 3238" transform="translate(1089.945 306.314)">
      <g id="Group_3238-2" data-name="Group 3238" clip-path="url(#clip-path)">
        <path id="Path_10613" data-name="Path 10613" d="M41.722,113.567c-.247.583-.5,1.164-.739,1.751a2.661,2.661,0,0,1-2.841,1.912H3.543A2.648,2.648,0,0,1,.73,115.339c-.217-.541-.441-1.08-.648-1.625-.225-.593.026-.959.657-.972.339-.007.68.012,1.018-.01.11-.007.284-.085.309-.166a5.439,5.439,0,0,1,1.323-1.982c.352-.4.7-.8,1.057-1.21-.047-.085-.09-.166-.135-.245a1.374,1.374,0,0,1,.361-1.917,10.831,10.831,0,0,1,4.346-2.135c.277-.063.477-.144.569-.469a1.325,1.325,0,0,1,.859-.81,10.7,10.7,0,0,1,6.738-.556c.09.021.182.035.317.061-.066-.878-.129-1.727-.193-2.576-.069-.907-.157-1.813-.2-2.722a1.943,1.943,0,0,1,2.171-2.266q6.846,0,13.692,0c.53,0,1.062-.026,1.588.022a1.9,1.9,0,0,1,1.816,2.163c-.016.229-.025.457-.035.629a13.586,13.586,0,0,1,1.85-.141,3.774,3.774,0,0,1,3.47,3.227,1.129,1.129,0,0,0,.065.19v2.12a1.174,1.174,0,0,0-.064.191,3.835,3.835,0,0,1-4.711,3.155,11.367,11.367,0,0,1-1.255-.458c-.056.721-.108,1.438-.168,2.155-.064.771-.088,1.549-.219,2.309a8.689,8.689,0,0,1-.514,1.443h.42c1.874,0,3.748.008,5.621-.006a.915.915,0,0,1,.89.425Zm-1.517.4h-.527q-3.688,0-7.377,0c-.188,0-.428.024-.55-.077a.908.908,0,0,1-.355-.6c.006-.179.257-.362.423-.517.054-.051.183-.023.278-.029a2.01,2.01,0,0,0,2.055-1.994q.494-6.336.976-12.673c.069-.907-.13-1.113-1.045-1.113H19.371c-.893,0-1.1.2-1.043,1.083q.192,2.743.424,5.483c.011.125.157.247.257.356.216.235.533.426.641.7a.756.756,0,0,0,.638.5,10.845,10.845,0,0,1,4.337,2.155,1.376,1.376,0,0,1,.358,1.824c-.051.094-.105.188-.172.306.492.563,1.009,1.1,1.465,1.692a8.272,8.272,0,0,1,.847,1.374.44.44,0,0,0,.477.307c.584-.017,1.168-.011,1.752,0a.6.6,0,0,1,.079,1.188,2.6,2.6,0,0,1-.486.026H1.505c.115.3.2.526.289.751.436,1.09.739,1.293,1.928,1.293H38.038c.149,0,.3.006.448-.006a1.359,1.359,0,0,0,1.219-.817c.172-.38.317-.772.5-1.22M10.35,112.74c-.023-.228-.036-.389-.055-.549-.119-.984-.245-1.967-.357-2.951-.055-.484.143-.78.519-.819s.637.2.695.675c.133,1.091.28,2.181.39,3.275.03.3.128.379.42.377,1.793-.013,3.586-.006,5.379-.008.1,0,.208-.017.326-.028.069-.576.135-1.128.2-1.68q.344-2.83.689-5.659c.025-.2.012-.357-.223-.453a9.28,9.28,0,0,0-7.4.014.508.508,0,0,0-.223.392c0,.309.082.619.095.93a.606.606,0,0,1-1.187.217c-.03-.083-.058-.166-.091-.264a9.872,9.872,0,0,0-4.067,1.929c-.215.167-.14.312-.025.484.868,1.3,1.731,2.6,2.6,3.893a.48.48,0,0,0,.3.215c.649.02,1.3.01,2,.01m30.172-9.867a10.253,10.253,0,0,0-.087-1.134A2.627,2.627,0,0,0,36.627,99.9c-.18.1-.409.3-.425.472-.146,1.541-.255,3.085-.355,4.629a.664.664,0,0,0,.186.45,2.632,2.632,0,0,0,3.781-.135,3.288,3.288,0,0,0,.708-2.44M19.683,106.2,18.9,112.74c.7,0,1.349.009,2-.009a.47.47,0,0,0,.307-.2c.881-1.3,1.748-2.616,2.629-3.92.148-.219.125-.363-.089-.5-.465-.3-.911-.639-1.392-.916a8.692,8.692,0,0,0-2.67-.986m2.876,6.513h3.318l.089-.1L24.1,110.4l-1.545,2.318M3.324,112.71h3.37l-1.534-2.3a15.591,15.591,0,0,0-1.836,2.3" transform="translate(0 -85.957)" fill="#deb01d"/>
        <path id="Path_10614" data-name="Path 10614" d="M248.591,7.629c.2-.387.4-.778.609-1.159a1.371,1.371,0,0,1,.251-.265c.718-.716.72-.92.012-1.626A1.975,1.975,0,0,1,249.47,1.4a1.783,1.783,0,0,0,.571-.954.787.787,0,0,1,.545-.434.5.5,0,0,1,.583.447,1.546,1.546,0,0,1-.336,1.257,6.473,6.473,0,0,1-.575.631c-.478.5-.478.785-.01,1.282a5.375,5.375,0,0,1,.666.764,1.885,1.885,0,0,1-.271,2.358,2.277,2.277,0,0,0-.82,1.264c-.038.313-.364.416-.682.351a.6.6,0,0,1-.449-.681l-.1-.052" transform="translate(-223.209 0)" fill="#deb01d"/>
        <path id="Path_10615" data-name="Path 10615" d="M281.023,11.33a3.472,3.472,0,0,0-.57-2.1.889.889,0,0,1,0-1.148,5.325,5.325,0,0,0,.5-1.188c.144-.429.4-.648.755-.563a.614.614,0,0,1,.44.827,6.882,6.882,0,0,1-.42,1.182.625.625,0,0,0-.006.635,4.453,4.453,0,0,1,.126,3.927c-.187.443-.506.6-.86.448-.332-.144-.417-.469-.277-.9s.249-.881.314-1.115" transform="translate(-251.627 -5.666)" fill="#deb01d"/>
        <path id="Path_10616" data-name="Path 10616" d="M223.676,14.392c.047-.349.079-.7.143-1.046.086-.465.385-.707.741-.632s.554.393.456.861a3.416,3.416,0,0,0,.252,2.3c.1.193.229.368.334.558a.621.621,0,0,1-.16.866.606.606,0,0,1-.854-.206,4.594,4.594,0,0,1-.913-2.7" transform="translate(-200.838 -11.404)" fill="#deb01d"/>
      </g>
    </g>
  </g>
</svg>
