<svg xmlns="http://www.w3.org/2000/svg" xmlns:xlink="http://www.w3.org/1999/xlink" width="63" height="63" viewBox="0 0 63 63">
  <defs>
    <clipPath id="clip-path">
      <rect id="Rectangle_275" data-name="Rectangle 275" width="48.965" height="32.405" fill="#9e9e9e"/>
    </clipPath>
  </defs>
  <g id="Group_3259" data-name="Group 3259" transform="translate(-1081.805 -294.555)">
    <rect id="Rectangle_248" data-name="Rectangle 248" width="63" height="63" rx="4" transform="translate(1081.805 294.555)" fill="#a2ffc1" opacity="0"/>
    <g id="Group_3267" data-name="Group 3267" transform="translate(1088.823 309.853)">
      <g id="Group_3267-2" data-name="Group 3267" clip-path="url(#clip-path)">
        <path id="Path_10642" data-name="Path 10642" d="M24.466,32.381c-7.1,0-14.2-.037-21.3.023A2.92,2.92,0,0,1,0,29.239C.048,20.464.021,11.688.023,2.912A2.667,2.667,0,0,1,2.014.091,3.7,3.7,0,0,1,2.928,0Q24.491,0,46.056,0a2.666,2.666,0,0,1,2.908,2.908q0,13.279,0,26.558a2.668,2.668,0,0,1-2.9,2.912q-10.8.008-21.593,0m.04-1.617H45.872c1.168,0,1.476-.306,1.476-1.465q0-13.108,0-26.216c0-1.161-.306-1.466-1.473-1.466H3.142c-1.212,0-1.5.29-1.5,1.492q0,13.079,0,26.159c0,1.2.293,1.5,1.5,1.5H24.506" transform="translate(0 0)" fill="#9e9e9e"/>
        <path id="Path_10643" data-name="Path 10643" d="M53.393,47.345q0,4.676,0,9.352c0,.912-.245,1.154-1.166,1.154q-8.169,0-16.338,0c-.921,0-1.177-.247-1.178-1.154q0-9.352,0-18.7c0-.907.255-1.153,1.178-1.153q8.169,0,16.338,0c.923,0,1.166.241,1.167,1.153q0,4.676,0,9.352M51.744,38.5H36.361V56.2H51.744Z" transform="translate(-29.353 -31.155)" fill="#9e9e9e"/>
        <path id="Path_10644" data-name="Path 10644" d="M201.267,71.357c-1.865,0-3.729,0-5.594,0-.593,0-.948-.284-.982-.751a.826.826,0,0,1,.928-.861c1.48-.009,2.96,0,4.44,0q3.46,0,6.92,0c.613,0,.985.318.984.807s-.373.8-.986.805c-1.9.005-3.806,0-5.709,0" transform="translate(-164.648 -58.978)" fill="#9e9e9e"/>
        <path id="Path_10645" data-name="Path 10645" d="M201.327,101.3c-1.884,0-3.767,0-5.651,0-.6,0-.949-.279-.984-.748a.826.826,0,0,1,.925-.863c1.384-.009,2.768,0,4.152,0q3.6,0,7.208,0c.6,0,.949.28.985.748.039.509-.351.863-.983.865-1.884.006-3.767,0-5.651,0" transform="translate(-164.649 -84.298)" fill="#9e9e9e"/>
        <path id="Path_10646" data-name="Path 10646" d="M201.346,129.613c1.865,0,3.729.005,5.593,0a.865.865,0,0,1,.969.636c.143.52-.27.974-.9.981-1.115.012-2.23,0-3.344,0-2.653,0-5.305,0-7.958,0-.492,0-.885-.123-1.026-.637-.148-.54.281-.979.957-.982,1.9-.006,3.806,0,5.709,0" transform="translate(-164.616 -109.61)" fill="#9e9e9e"/>
        <path id="Path_10647" data-name="Path 10647" d="M56.882,68.73c-1.785-2.187-1.782-4.542-.027-6.17a4.147,4.147,0,0,1,5.6,6.12,19.77,19.77,0,0,1,1.61,1.195,6.362,6.362,0,0,1,2.106,4.534c.04.709-.272,1.044-.98,1.045q-5.542.007-11.084,0c-.689,0-.985-.3-.956-1A6.387,6.387,0,0,1,56.2,69.127c.207-.136.428-.25.681-.4m7.548,5.09a4.8,4.8,0,0,0-5.139-4.05c-2.259.151-4.466,2.189-4.376,4.05ZM59.683,63.1a2.511,2.511,0,1,0,2.478,2.513A2.511,2.511,0,0,0,59.683,63.1" transform="translate(-44.945 -51.989)" fill="#9e9e9e"/>
      </g>
    </g>
  </g>
</svg>
