<svg xmlns="http://www.w3.org/2000/svg" xmlns:xlink="http://www.w3.org/1999/xlink" width="58" height="58" viewBox="0 0 58 58">
  <defs>
    <clipPath id="clip-path">
      <rect id="Rectangle_247" data-name="Rectangle 247" width="39.376" height="38.054" fill="#00782c"/>
    </clipPath>
  </defs>
  <g id="Group_3228" data-name="Group 3228" transform="translate(-1081.805 -294.805)">
    <rect id="Rectangle_248" data-name="Rectangle 248" width="58" height="58" rx="4" transform="translate(1081.805 294.805)" fill="#a2ffc1" opacity="0"/>
    <g id="Group_3227" data-name="Group 3227" transform="translate(1091.319 304.98)">
      <g id="Group_3226" data-name="Group 3226" clip-path="url(#clip-path)">
        <path id="Path_10612" data-name="Path 10612" d="M0,35.1V18.723A2.771,2.771,0,0,1,1.5,17.16a4.372,4.372,0,0,1,.772-.338c.291-.082.355-.237.354-.522q-.015-5.767-.006-11.534A4.59,4.59,0,0,1,7.363,0Q20.973,0,34.583,0a1.981,1.981,0,0,1,2.171,2.173q0,2.672,0,5.344v.4a3.331,3.331,0,0,1,2.619,3.317q.006,9.765,0,19.531a3.649,3.649,0,0,1-.114.91,3.256,3.256,0,0,1-3.318,2.437q-8.189,0-16.378,0h-.5a1.859,1.859,0,0,0-.028.306,1.992,1.992,0,0,1-1.206,2.051,11.058,11.058,0,0,1-2.089.848,23.818,23.818,0,0,1-7.2.715,20.027,20.027,0,0,1-6.009-.945A3.6,3.6,0,0,1,0,35.1M38.065,17.723v-.459q0-2.9,0-5.806A2.014,2.014,0,0,0,35.8,9.187q-14.207,0-28.414,0A4.721,4.721,0,0,1,4.146,8a1.361,1.361,0,0,0-.194-.117v8.372a.757.757,0,0,0,.132.016,1.92,1.92,0,0,0,.229-.029,27.384,27.384,0,0,1,10.2-.05,9.317,9.317,0,0,1,3.422,1.2,2.18,2.18,0,0,1,1.108,2c-.028,4.293-.013,8.587-.013,12.88v.534h.415q8.247,0,16.495,0a1.968,1.968,0,0,0,2.126-2.138q0-3,0-6c0-.123-.013-.246-.02-.38-.135-.006-.236-.015-.337-.015-.948,0-1.9.029-2.845-.013a4.256,4.256,0,0,1-1.415-.282,3.266,3.266,0,0,1,1.25-6.253c1.1-.017,2.2,0,3.368,0M35.4,3.943a.835.835,0,0,0,.038-.136q0-.73,0-1.461c0-.872-.157-1.029-1.029-1.03H7.537c-.218,0-.436,0-.653.019a3.279,3.279,0,0,0,.471,6.539q13.843,0,27.685,0c.124,0,.248-.012.374-.019v-2.6H6.279a3.3,3.3,0,0,1-.422-.009.669.669,0,0,1-.606-.677.655.655,0,0,1,.657-.621c.141-.008.282,0,.423,0H35.4ZM9.6,17.059a23.679,23.679,0,0,0-5.542.586,6.905,6.905,0,0,0-2.44.982c-.4.288-.411.542,0,.8a6.96,6.96,0,0,0,1.371.671,18.274,18.274,0,0,0,5.434.875,22.133,22.133,0,0,0,7.11-.72,9.631,9.631,0,0,0,1.908-.864c.374-.209.367-.487,0-.717a7.1,7.1,0,0,0-1.433-.713,20.319,20.319,0,0,0-6.414-.9m8.107,3.783A18.828,18.828,0,0,1,9.5,22.3,18.693,18.693,0,0,1,1.31,20.836c0,.643.02,1.245-.007,1.845a.715.715,0,0,0,.414.752,10.767,10.767,0,0,0,1.755.749,24,24,0,0,0,11.482.161A12.682,12.682,0,0,0,17.2,23.5a.855.855,0,0,0,.48-.54c.059-.684.023-1.376.023-2.116M1.31,24.778c0,.615.031,1.19-.01,1.76a.829.829,0,0,0,.509.9,11.2,11.2,0,0,0,1.807.73,24.745,24.745,0,0,0,10.966.217,7.531,7.531,0,0,0,2.656-.958c.183-.117.43-.313.443-.487.051-.7.021-1.414.021-2.14A23.565,23.565,0,0,1,1.31,24.778m0,3.934c0,.631.025,1.221-.009,1.807a.762.762,0,0,0,.447.814,11.411,11.411,0,0,0,1.836.758,24.725,24.725,0,0,0,10.744.279,8.356,8.356,0,0,0,2.822-.956c.21-.124.5-.328.52-.516.061-.713.025-1.435.025-2.181C14.158,30.633,5.058,30.7,1.31,28.713m0,3.938A15.747,15.747,0,0,1,1.3,34.28a1.055,1.055,0,0,0,.69,1.144,10.9,10.9,0,0,0,3.254.986,27.06,27.06,0,0,0,7.617.14,13.627,13.627,0,0,0,3.93-.99,1.27,1.27,0,0,0,.937-1.458,10.656,10.656,0,0,1-.012-1.446,19.05,19.05,0,0,1-8.2,1.454,18.911,18.911,0,0,1-8.2-1.46m36.747-13.62c-1.092,0-2.152-.005-3.213,0a1.965,1.965,0,1,0,0,3.928c.974.008,1.948,0,2.922,0a2.634,2.634,0,0,0,.293-.033Z" transform="translate(0 0)" fill="#00782c"/>
      </g>
    </g>
    <path id="Icon_awesome-arrow-up" data-name="Icon awesome-arrow-up" d="M1.33,8.321l-.708.708a.762.762,0,0,0,0,1.081l6.2,6.2a.762.762,0,0,0,1.081,0l6.2-6.2a.762.762,0,0,0,0-1.081l-.708-.708a.766.766,0,0,0-1.094.013L8.636,12.177V3.012a.764.764,0,0,0-.765-.765H6.85a.764.764,0,0,0-.765.765v9.165L2.424,8.334A.761.761,0,0,0,1.33,8.321Z" transform="translate(1082.82 293.447)" fill="#00782c"/>
  </g>
</svg>
