<svg xmlns="http://www.w3.org/2000/svg" xmlns:xlink="http://www.w3.org/1999/xlink" width="63" height="63" viewBox="0 0 63 63">
  <defs>
    <clipPath id="clip-path">
      <rect id="Rectangle_276" data-name="Rectangle 276" width="42.911" height="41.849" fill="#9e9e9e"/>
    </clipPath>
  </defs>
  <g id="Group_3259" data-name="Group 3259" transform="translate(-1081.805 -294.555)">
    <rect id="Rectangle_248" data-name="Rectangle 248" width="63" height="63" rx="4" transform="translate(1081.805 294.555)" fill="#a2ffc1" opacity="0"/>
    <g id="Group_3271" data-name="Group 3271" transform="translate(1091.85 305.131)">
      <g id="Group_3271-2" data-name="Group 3271" clip-path="url(#clip-path)">
        <path id="Path_10648" data-name="Path 10648" d="M2.537,100.284A2.986,2.986,0,0,1,.591,96.935c.034-.551-.006-1.106.01-1.659a2.805,2.805,0,0,1,2.737-2.751c.513-.016,1.027,0,1.567,0a12.851,12.851,0,0,1,0-4.683s-.015-.048-.042-.055a2.9,2.9,0,0,1-2.44-3.224c0-.553,0-1.106,0-1.659A2.842,2.842,0,0,1,5.433,79.88c2.5-.016,5,0,7.494,0,1.831,0,3.661.013,5.492-.013a1.606,1.606,0,0,0,.882-.282,15.068,15.068,0,1,1,10.585,27.053,18.17,18.17,0,0,1-1.826.092q-11.212.009-22.425,0a2.874,2.874,0,0,1-3.2-3.217c.007-1.038.066-2.076.105-3.228m12.329-8.615A13.462,13.462,0,1,0,28.243,78.205,13.457,13.457,0,0,0,14.866,91.669m6.508,13.459c-.067-.1-.079-.14-.105-.154a15.524,15.524,0,0,1-5.037-4.316.743.743,0,0,0-.529-.221q-5.173-.019-10.346-.006a1.216,1.216,0,0,0-1.325,1.314c-.012.648-.007,1.3,0,1.943a1.271,1.271,0,0,0,1.441,1.439c1.353.006,2.705,0,4.058,0H21.374m-6.513-6.3c-.458-1.516-.9-3-1.371-4.479-.035-.11-.29-.213-.443-.214q-4.776-.018-9.551,0A1.2,1.2,0,0,0,2.2,95.412c-.015.686-.012,1.373,0,2.059a1.235,1.235,0,0,0,1.307,1.346c3.812.014,7.625.006,11.353.006M16.98,81.478H8.813c-1.124,0-2.249-.012-3.373,0A1.267,1.267,0,0,0,4.03,82.9c-.006.572,0,1.143,0,1.715,0,1.156.423,1.579,1.588,1.581,2.572,0,5.145-.026,7.717.019a1.253,1.253,0,0,0,1.347-.85c.667-1.333,1.511-2.578,2.3-3.886m-3.356,6.358c.03.016,0-.017-.036-.017-2.038,0-4.077-.023-6.115.007a1.156,1.156,0,0,0-1.15,1.245c-.017.647-.007,1.3,0,1.944,0,1.032.464,1.5,1.5,1.5,1.353.007,2.706,0,4.059,0h1.281l.462-4.683" transform="translate(-0.491 -64.881)" fill="#9e9e9e"/>
        <path id="Path_10649" data-name="Path 10649" d="M24.295,6.634c2.893-1.3,5.756-2.592,8.612-3.9a.651.651,0,0,0,.309-.413A2.634,2.634,0,0,1,35.242.093a2.62,2.62,0,0,1,2.836,1.021.727.727,0,0,0,.577.174C39.672,1.143,40.683.951,41.7.8a1.054,1.054,0,0,1,.712.051,1.23,1.23,0,0,1,.452.771c.024.428-.318.665-.737.735-.977.162-1.952.335-2.933.467a.764.764,0,0,0-.766.642,2.657,2.657,0,0,1-4.453,1.106c-.107-.107-.2-.226-.325-.364-.135.05-.277.092-.411.152-2.777,1.25-5.557,2.495-8.324,3.767a1.319,1.319,0,0,0-.574.62,2.725,2.725,0,0,1-2.429,1.72A2.627,2.627,0,0,1,19.393,8.9a.74.74,0,0,0-.649-.507c-2.71-.419-5.415-.869-8.125-1.292a.65.65,0,0,0-.524.16C8.875,8.83,7.785,9.04,5.968,8.017l-4.2,2.64c-.161.1-.319.21-.486.3a.815.815,0,0,1-1.156-.222A.785.785,0,0,1,.441,9.606c.83-.54,1.674-1.06,2.512-1.587.629-.4,1.27-.774,1.879-1.2a.7.7,0,0,0,.253-.532A2.716,2.716,0,0,1,7.13,3.32a2.658,2.658,0,0,1,3.144,1.742.6.6,0,0,0,.553.453c2.728.429,5.453.871,8.18,1.307a1.705,1.705,0,0,0,.273,0,2.749,2.749,0,0,1,5.014-.19M35.873,3.759a1.06,1.06,0,0,0,1.086-1.075A1.085,1.085,0,0,0,35.922,1.6,1.113,1.113,0,0,0,34.8,2.663a1.082,1.082,0,0,0,1.077,1.1M21.794,6.706a1.082,1.082,0,0,0-1.065,1.107A1.123,1.123,0,0,0,21.81,8.865a1.073,1.073,0,0,0,1.078-1.092,1.058,1.058,0,0,0-1.094-1.066M7.766,7.039A1.086,1.086,0,0,0,8.821,5.919,1.055,1.055,0,0,0,7.706,4.876,1.079,1.079,0,0,0,6.668,5.952a1.113,1.113,0,0,0,1.1,1.087" transform="translate(0 0)" fill="#9e9e9e"/>
        <path id="Path_10650" data-name="Path 10650" d="M122.256,126.167a10.786,10.786,0,1,1,10.813-10.725,10.787,10.787,0,0,1-10.813,10.725m.06-1.6a9.184,9.184,0,1,0-9.211-9.125,9.189,9.189,0,0,0,9.211,9.125" transform="translate(-94.457 -88.605)" fill="#9e9e9e"/>
        <path id="Path_10651" data-name="Path 10651" d="M166.333,139.362c.31,0,.591-.015.869,0a.778.778,0,0,1,.818.833.749.749,0,0,1-.826.759c-.667.011-1.334,0-2,.008a.962.962,0,0,0-1.06.949c.016.53.415.867,1.052.892a10.156,10.156,0,0,1,1.2.056,2.45,2.45,0,0,1,2.087,2.184,2.486,2.486,0,0,1-1.691,2.673c-.142.05-.285.1-.422.144-.153,1.177-.306,1.439-.835,1.443s-.735-.3-.87-1.455c-.244,0-.5.008-.758,0-.542-.02-.881-.309-.9-.756a.825.825,0,0,1,.893-.835c.628-.023,1.258,0,1.886-.01.731-.008,1.12-.34,1.107-.932-.012-.566-.4-.889-1.09-.906-.267-.007-.534,0-.8-.009a2.508,2.508,0,0,1-.738-4.886.543.543,0,0,0,.466-.627c0-.622.315-.97.808-.965s.758.344.784.983c.005.129.015.258.026.456" transform="translate(-137.68 -116.837)" fill="#9e9e9e"/>
      </g>
    </g>
  </g>
</svg>
