<svg xmlns="http://www.w3.org/2000/svg" xmlns:xlink="http://www.w3.org/1999/xlink" width="62.995" height="62.995" viewBox="0 0 62.995 62.995">
  <defs>
    <clipPath id="clip-path">
      <rect id="Rectangle_251" data-name="Rectangle 251" width="44.171" height="41.101" fill="#fff"/>
    </clipPath>
  </defs>
  <g id="Group_3269" data-name="Group 3269" transform="translate(-1081.805 -294.805)">
    <rect id="Rectangle_248" data-name="Rectangle 248" width="62.995" height="62.995" rx="4" transform="translate(1081.805 294.805)" fill="#a2ffc1" opacity="0"/>
    <g id="Group_3239" data-name="Group 3239" transform="translate(1091.218 305.752)">
      <g id="Group_3239-2" data-name="Group 3239" clip-path="url(#clip-path)">
        <path id="Path_10617" data-name="Path 10617" d="M34.782,16.066c.764,0,1.477.005,2.189,0a2.228,2.228,0,0,1,2.208,1.369.53.53,0,0,0,.394.23c.625.025,1.251,0,1.877.013a2.68,2.68,0,0,1,2.715,2.728q.012,9.006,0,18.013A2.632,2.632,0,0,1,41.5,41.093q-6.146.017-12.291,0a2.627,2.627,0,0,1-2.65-2.681c-.01-1.188,0-2.377,0-3.636-.208.114-.361.194-.51.281C23.366,36.6,20.68,38.139,18.007,39.7a1.047,1.047,0,0,1-1.193,0Q8.7,34.991.575,30.319a1.016,1.016,0,0,1-.576-1q.018-9.386,0-18.773a.99.99,0,0,1,.545-.974Q8.673,4.9,16.784.2A1.086,1.086,0,0,1,18.02.189q8.09,4.7,16.2,9.358a1.014,1.014,0,0,1,.572,1c-.022,1.816-.009,3.633-.009,5.515M16.814,38.223V37.69q0-8.468.008-16.936a.681.681,0,0,0-.4-.691Q9.045,15.834,1.682,11.58c-.123-.071-.251-.131-.4-.21-.01.115-.019.174-.019.233q0,8.669-.01,17.338c0,.305.157.408.367.529Q7,32.563,12.371,35.661l4.443,2.562m11-8.839q0,4.468,0,8.935a1.4,1.4,0,0,0,1.531,1.525q6.031,0,12.063,0a1.4,1.4,0,0,0,1.51-1.462q.008-8.98,0-17.96a1.431,1.431,0,0,0-1.492-1.493c-.61-.009-1.221.011-1.832-.008a.465.465,0,0,0-.5.318,2.026,2.026,0,0,1-1.89,1.2c-1.236.021-2.472.013-3.708,0a1.694,1.694,0,0,1-1.6-.812c-.359-.748-.9-.747-1.548-.706-.3.019-.6,0-.893,0a1.46,1.46,0,0,0-1.64,1.656q0,4.4,0,8.8m5.7-18.009c-.1.049-.165.077-.226.112q-7.472,4.327-14.948,8.649a.517.517,0,0,0-.27.54q.006,8.577,0,17.154c0,.108.018.217.032.361.175-.094.307-.16.434-.233,2.549-1.475,5.1-2.955,7.652-4.418a.654.654,0,0,0,.382-.66q-.017-6.209-.006-12.419a2.677,2.677,0,0,1,2.785-2.786c.7,0,1.4,0,2.1,0a2.3,2.3,0,0,1,2.065-1.627ZM10.114,15c2.425,1.4,4.767,2.758,7.119,4.1a.582.582,0,0,0,.47-.064q7.448-4.285,14.886-8.588c.1-.055.182-.126.3-.209-.169-.1-.294-.179-.421-.253C30.317,8.742,28.162,7.5,26.017,6.249a.65.65,0,0,0-.761,0q-6.679,3.877-13.371,7.731L10.114,15M24.38,5.314c-2.309-1.333-4.536-2.624-6.774-3.894a.629.629,0,0,0-.509.066Q9.666,5.758,2.246,10.049c-.1.056-.187.122-.317.207.169.106.29.187.415.259,2.049,1.184,4.1,2.361,6.143,3.557a.651.651,0,0,0,.761-.007q5.79-3.363,11.595-6.7C22,6.693,23.155,6.023,24.38,5.314m11,13.881c.58,0,1.16.009,1.74,0a.936.936,0,1,0-.016-1.871q-1.74-.013-3.481,0a.938.938,0,1,0,.016,1.873c.58.008,1.16,0,1.74,0" transform="translate(0 0)" fill="#fff"/>
        <path id="Path_10618" data-name="Path 10618" d="M249.761,238.416c0,.446.005.892,0,1.338-.008.514-.227.747-.726.752q-1.383.012-2.765,0a.634.634,0,0,1-.707-.724q-.012-1.383,0-2.765a.634.634,0,0,1,.723-.707q1.383-.012,2.766,0c.475,0,.7.24.708.723.009.461,0,.922,0,1.383m-1.26-.83h-1.659v1.636H248.5Z" transform="translate(-216.231 -208.082)" fill="#fff"/>
        <path id="Path_10619" data-name="Path 10619" d="M247.348,287.344c.1.315.228.654-.095.9a1.44,1.44,0,0,1-1.323.1c-.359-.1-.37-.452-.367-.78.008-.848,0-1.7,0-2.544,0-.581.227-.8.815-.8.863,0,1.726.006,2.588,0,.368,0,.7.11.755.479.067.422.2.9-.21,1.253-.367.31-.774.124-1.054-.458h-1.619v1.65l.427.13.079.076" transform="translate(-216.236 -250.272)" fill="#fff"/>
        <path id="Path_10620" data-name="Path 10620" d="M246.834,189.659a2.047,2.047,0,0,0-.026.211c0,.475,0,.951,0,1.433a3.36,3.36,0,0,1,.326.144.59.59,0,0,1,.284.727c-.1.373-.489.5-1.235.433a.589.589,0,0,1-.615-.584q-.032-1.516,0-3.034a.571.571,0,0,1,.618-.577q1.472-.018,2.945,0a.577.577,0,0,1,.609.541c.04.376.115.8-.309,1.038a.615.615,0,0,1-.832-.185.51.51,0,0,0-.336-.142c-.46-.016-.922-.007-1.428-.007" transform="translate(-216.226 -165.904)" fill="#fff"/>
        <path id="Path_10621" data-name="Path 10621" d="M260.169,195.462c.615-.622,1.167-1.184,1.724-1.74.36-.359.74-.406,1.014-.137s.247.642-.119,1.011q-1,1.013-2.018,2.018c-.43.426-.713.426-1.141.008-.287-.281-.577-.559-.849-.854a.6.6,0,0,1-.009-.911.593.593,0,0,1,.878.023c.173.161.318.353.52.581" transform="translate(-227.69 -170.315)" fill="#fff"/>
        <path id="Path_10622" data-name="Path 10622" d="M258.8,292.552l-.079-.076c-.184-.344-.26-.71.115-.948.689-.437.927.329,1.405.591.565-.575,1.131-1.162,1.711-1.736a.632.632,0,0,1,1.031.02.575.575,0,0,1-.071.774c-.749.763-1.5,1.521-2.268,2.268a.6.6,0,0,1-.912-.008c-.315-.291-.622-.59-.932-.886" transform="translate(-227.692 -255.48)" fill="#fff"/>
        <path id="Path_10623" data-name="Path 10623" d="M305.772,202.388c-.609,0-1.218.005-1.827,0-.471-.005-.748-.255-.736-.644.011-.37.28-.6.732-.6q1.849-.008,3.7,0c.461,0,.757.268.743.643-.013.36-.3.6-.739.6-.624.007-1.247,0-1.871,0" transform="translate(-266.998 -177.114)" fill="#fff"/>
        <path id="Path_10624" data-name="Path 10624" d="M305.758,250.293c-.609,0-1.218.006-1.827,0-.447-.006-.716-.243-.721-.614a.623.623,0,0,1,.7-.632q1.871-.011,3.742,0a.648.648,0,0,1,.729.613c.007.375-.288.63-.754.634-.624.006-1.247,0-1.871,0" transform="translate(-266.999 -219.297)" fill="#fff"/>
        <path id="Path_10625" data-name="Path 10625" d="M305.8,298.2c-.609,0-1.218,0-1.827,0-.486,0-.761-.229-.768-.613s.269-.633.745-.635q1.849-.007,3.7,0a.649.649,0,0,1,.731.611c.008.375-.286.631-.751.636-.609.006-1.218,0-1.827,0" transform="translate(-266.999 -261.485)" fill="#fff"/>
      </g>
    </g>
  </g>
</svg>
