<svg xmlns="http://www.w3.org/2000/svg" xmlns:xlink="http://www.w3.org/1999/xlink" width="58" height="58" viewBox="0 0 58 58">
  <defs>
    <clipPath id="clip-path">
      <rect id="Rectangle_251" data-name="Rectangle 251" width="40.669" height="37.842" fill="#deb01d"/>
    </clipPath>
  </defs>
  <g id="Group_3228" data-name="Group 3228" transform="translate(-1081.805 -294.805)">
    <rect id="Rectangle_248" data-name="Rectangle 248" width="58" height="58" rx="4" transform="translate(1081.805 294.805)" fill="#a2ffc1" opacity="0"/>
    <g id="Group_3239" data-name="Group 3239" transform="translate(1090.471 304.884)">
      <g id="Group_3239-2" data-name="Group 3239" clip-path="url(#clip-path)">
        <path id="Path_10617" data-name="Path 10617" d="M32.024,14.792c.7,0,1.36,0,2.015,0a2.051,2.051,0,0,1,2.033,1.261.488.488,0,0,0,.363.212c.575.023,1.152,0,1.728.012a2.467,2.467,0,0,1,2.5,2.512q.011,8.292,0,16.584a2.423,2.423,0,0,1-2.451,2.462q-5.658.016-11.317,0a2.419,2.419,0,0,1-2.44-2.469c-.009-1.094,0-2.188,0-3.348-.191.105-.332.179-.47.258-2.469,1.423-4.942,2.84-7.4,4.277a.964.964,0,0,1-1.1,0Q8.014,32.217.53,27.915A.935.935,0,0,1,0,27Q.016,18.353,0,9.711a.911.911,0,0,1,.5-.9Q7.985,4.51,15.453.181A1,1,0,0,1,16.591.174Q24.039,4.5,31.505,8.79a.934.934,0,0,1,.527.924c-.02,1.672-.008,3.345-.008,5.078m-16.543,20.4V34.7q0-7.8.008-15.593a.627.627,0,0,0-.369-.636Q8.327,14.578,1.548,10.662c-.113-.065-.231-.121-.371-.193-.009.106-.017.16-.017.214q0,7.982-.009,15.963c0,.281.145.376.338.487q4.951,2.849,9.9,5.7l4.091,2.359M25.6,27.054q0,4.113,0,8.227a1.289,1.289,0,0,0,1.41,1.4q5.553,0,11.106,0a1.288,1.288,0,0,0,1.39-1.346q.007-8.268,0-16.536a1.317,1.317,0,0,0-1.374-1.374c-.562-.008-1.125.01-1.686-.007a.428.428,0,0,0-.461.293,1.866,1.866,0,0,1-1.74,1.106c-1.138.02-2.276.012-3.414,0a1.56,1.56,0,0,1-1.473-.748c-.331-.689-.833-.688-1.425-.65-.273.017-.548,0-.822,0a1.344,1.344,0,0,0-1.51,1.524q0,4.052,0,8.1m5.245-16.581c-.092.046-.152.071-.208.1q-6.88,3.984-13.762,7.963a.476.476,0,0,0-.248.5q.005,7.9,0,15.794c0,.1.017.2.029.333.162-.087.282-.147.4-.215,2.347-1.358,4.691-2.721,7.045-4.068a.6.6,0,0,0,.352-.608q-.016-5.717-.005-11.434a2.464,2.464,0,0,1,2.564-2.565c.643,0,1.286,0,1.93,0a2.113,2.113,0,0,1,1.9-1.5ZM9.312,13.812c2.233,1.289,4.389,2.539,6.554,3.772a.536.536,0,0,0,.433-.059q6.858-3.945,13.706-7.907c.088-.051.168-.116.276-.192-.155-.093-.27-.165-.388-.233-1.981-1.145-3.965-2.284-5.939-3.44a.6.6,0,0,0-.7,0Q17.1,9.319,10.943,12.867l-1.631.945m13.134-8.92c-2.126-1.227-4.176-2.416-6.237-3.585a.579.579,0,0,0-.469.061Q8.9,5.3,2.068,9.252c-.089.051-.172.112-.292.191.155.1.267.172.382.239,1.886,1.09,3.776,2.174,5.656,3.275a.6.6,0,0,0,.7-.006q5.331-3.1,10.675-6.172c1.065-.615,2.129-1.233,3.257-1.886m10.13,12.78c.534,0,1.068.008,1.6,0a.862.862,0,1,0-.015-1.723q-1.6-.012-3.2,0a.864.864,0,1,0,.015,1.724c.534.007,1.068,0,1.6,0" transform="translate(0 0)" fill="#deb01d"/>
        <path id="Path_10618" data-name="Path 10618" d="M249.428,238.248c0,.411,0,.821,0,1.232-.007.473-.209.688-.668.692q-1.273.011-2.546,0a.584.584,0,0,1-.65-.667q-.011-1.273,0-2.546a.583.583,0,0,1,.666-.65q1.273-.011,2.546,0c.437,0,.643.221.651.666.008.424,0,.849,0,1.273m-1.16-.765H246.74v1.506h1.527Z" transform="translate(-218.556 -210.32)" fill="#deb01d"/>
        <path id="Path_10619" data-name="Path 10619" d="M247.206,287.1c.094.29.21.6-.087.828a1.326,1.326,0,0,1-1.218.095c-.331-.093-.341-.416-.338-.718.007-.781,0-1.561,0-2.342,0-.535.209-.738.75-.741.794,0,1.589.005,2.383,0,.339,0,.64.1.695.441.062.388.186.833-.194,1.153-.338.285-.713.115-.97-.422h-1.49v1.519l.393.12.073.07" transform="translate(-218.561 -252.963)" fill="#deb01d"/>
        <path id="Path_10620" data-name="Path 10620" d="M246.732,189.559a1.9,1.9,0,0,0-.024.194c0,.438,0,.875,0,1.319a3.1,3.1,0,0,1,.3.133.543.543,0,0,1,.261.669c-.093.343-.45.461-1.137.4a.543.543,0,0,1-.566-.537q-.029-1.4,0-2.793a.525.525,0,0,1,.569-.531q1.356-.016,2.712,0a.532.532,0,0,1,.561.5c.037.346.106.737-.284.956a.566.566,0,0,1-.766-.171.469.469,0,0,0-.309-.13c-.424-.015-.849-.006-1.315-.006" transform="translate(-218.551 -167.688)" fill="#deb01d"/>
        <path id="Path_10621" data-name="Path 10621" d="M260.042,195.3c.567-.573,1.074-1.09,1.587-1.6.331-.331.682-.374.934-.126s.227.591-.109.931q-.925.933-1.858,1.858c-.4.392-.657.392-1.05.007-.264-.258-.531-.515-.781-.786a.556.556,0,0,1-.009-.839.546.546,0,0,1,.808.021c.159.148.293.325.478.535" transform="translate(-230.138 -172.146)" fill="#deb01d"/>
        <path id="Path_10622" data-name="Path 10622" d="M258.785,292.36l-.073-.07c-.169-.317-.24-.654.106-.873.635-.4.853.3,1.294.544.52-.529,1.041-1.07,1.576-1.6a.582.582,0,0,1,.949.019.529.529,0,0,1-.065.713c-.69.7-1.384,1.4-2.088,2.089a.554.554,0,0,1-.84-.008c-.29-.268-.573-.544-.858-.816" transform="translate(-230.14 -258.228)" fill="#deb01d"/>
        <path id="Path_10623" data-name="Path 10623" d="M305.569,202.289c-.561,0-1.121,0-1.682,0-.434,0-.689-.235-.678-.593.01-.341.258-.554.674-.556q1.7-.007,3.4,0c.425,0,.7.247.684.592s-.273.552-.68.556c-.574.006-1.148,0-1.723,0" transform="translate(-269.869 -179.019)" fill="#deb01d"/>
        <path id="Path_10624" data-name="Path 10624" d="M305.556,250.193c-.561,0-1.121.005-1.682,0-.411-.005-.659-.224-.664-.566a.574.574,0,0,1,.646-.582q1.723-.01,3.445,0a.6.6,0,0,1,.671.565c.006.345-.265.58-.694.584-.574.006-1.148,0-1.723,0" transform="translate(-269.871 -221.656)" fill="#deb01d"/>
        <path id="Path_10625" data-name="Path 10625" d="M305.6,298.1c-.561,0-1.121,0-1.682,0-.447,0-.7-.21-.707-.565s.248-.583.685-.585q1.7-.007,3.4,0a.6.6,0,0,1,.673.563c.007.346-.264.581-.692.586-.561.006-1.121,0-1.682,0" transform="translate(-269.87 -264.297)" fill="#deb01d"/>
      </g>
    </g>
  </g>
</svg>
