<svg xmlns="http://www.w3.org/2000/svg" width="162.637" height="84.211" viewBox="0 0 162.637 84.211">
  <g id="Group_3417" data-name="Group 3417" transform="translate(-905.03 -366.514)">
    <g id="Group_3415" data-name="Group 3415" transform="translate(-39.586 54.562)">
      <path id="Path_10716" data-name="Path 10716" d="M207,59.826h-6.99l-1.157,3.344h-3.7l6.312-17.578h4.1l6.312,17.578h-3.722Zm-3.5-10.159-2.54,7.343h5.08Z" transform="translate(749.46 332.841)" fill="#ca2035"/>
      <path id="Path_10717" data-name="Path 10717" d="M279.045,56.509H276.1v6.739h-3.521V45.7h6.463c4.225,0,6.337,2.389,6.337,5.432,0,2.666-1.811,5.381-6.337,5.381m-.151-2.842c1.987,0,2.867-.981,2.867-2.54,0-1.609-.88-2.565-2.867-2.565H276.1v5.1Z" transform="translate(691.122 332.764)" fill="#ca2035"/>
      <path id="Path_10718" data-name="Path 10718" d="M349.616,45.593V63.17H346.1l-7.972-12.045V63.17H334.6V45.593h3.521l7.972,12.07V45.593Z" transform="translate(644.391 332.842)" fill="#ca2035"/>
      <path id="Path_10719" data-name="Path 10719" d="M417.038,59.826h-6.99l-1.157,3.344h-3.7l6.312-17.578h4.1l6.312,17.578H418.2Zm-3.5-10.159L411,57.01h5.08Z" transform="translate(591.203 332.841)" fill="#ca2035"/>
      <path id="Path_10720" data-name="Path 10720" d="M512.332,44.777a8.271,8.271,0,0,1,8.248,5.683h-4.049a4.425,4.425,0,0,0-4.225-2.515c-3.068,0-5.255,2.238-5.255,5.809,0,3.546,2.188,5.809,5.255,5.809a4.406,4.406,0,0,0,4.225-2.54h4.049a8.241,8.241,0,0,1-8.248,5.683,8.654,8.654,0,0,1-8.9-8.952,8.675,8.675,0,0,1,8.9-8.978" transform="translate(517.186 333.456)" fill="#ca2035"/>
      <path id="Path_10721" data-name="Path 10721" d="M591.829,45.7c4.225,0,6.337,2.439,6.337,5.381a5.068,5.068,0,0,1-4,5.054l4.2,7.116h-4.074l-3.872-6.84h-1.66v6.84H585.24V45.7Zm-.126,2.917H588.76v5.155H591.7c1.962,0,2.842-1.031,2.842-2.615,0-1.559-.88-2.54-2.842-2.54" transform="translate(455.545 332.764)" fill="#ca2035"/>
      <path id="Path_10722" data-name="Path 10722" d="M660.813,48.46h-6.664v4.4h5.91v2.791h-5.91V60.3h6.664V63.17H650.629V45.593h10.184Z" transform="translate(406.276 332.842)" fill="#ca2035"/>
      <path id="Path_10723" data-name="Path 10723" d="M720.288,54.5c0,5.306-3.646,8.751-9.254,8.751H704.9V45.7h6.136c5.608,0,9.254,3.47,9.254,8.8m-9.379,5.759c3.7,0,5.783-2.112,5.783-5.759s-2.087-5.834-5.783-5.834h-2.49V60.256Z" transform="translate(365.386 332.764)" fill="#ca2035"/>
      <rect id="Rectangle_2670" data-name="Rectangle 2670" width="3.52" height="17.552" transform="translate(1088.316 378.46)" fill="#ca2035"/>
      <path id="Path_10724" data-name="Path 10724" d="M802.627,45.7H815.5v2.842h-4.677v14.71H807.3V48.538h-4.677Z" transform="translate(291.75 332.764)" fill="#ca2035"/>
    </g>
    <g id="Group_3416" data-name="Group 3416" transform="translate(74.107 2.155)">
      <path id="Path_10687" data-name="Path 10687" d="M32.393,47.483a4.211,4.211,0,0,1,2.794-2.095,17.608,17.608,0,0,1,4.986-1.019c1.365-.09,2.737-.2,4.1-.156a22.445,22.445,0,0,1,7.338,1.245,5.491,5.491,0,0,1,2.14,1.272,1.763,1.763,0,0,1,.477,1.505c-.041.016-.1.021-.12.051a3.865,3.865,0,0,1-2.007,1.58A20.938,20.938,0,0,1,44.439,51.3c-1.44.05-2.889-.068-4.33-.156A17.361,17.361,0,0,1,35,50.067a4.405,4.405,0,0,1-2.6-1.942Z" transform="translate(861.792 333.851)" fill="#fde18e"/>
      <path id="Path_10688" data-name="Path 10688" d="M32.393,56.854A4.405,4.405,0,0,0,35,58.8a17.361,17.361,0,0,0,5.111,1.081c1.442.089,2.89.206,4.33.156A20.938,20.938,0,0,0,52.1,58.6a3.865,3.865,0,0,0,2.007-1.58c.017-.03.079-.034.12-.051,0,1.155,0,2.31.009,3.465a4.818,4.818,0,0,0,.052.492A2.661,2.661,0,0,1,52.6,62.957a17.2,17.2,0,0,1-6.4,1.567,38.788,38.788,0,0,1-4.374.093,24.82,24.82,0,0,1-3.247-.333c-1.029-.164-2.04-.434-3.059-.658-.207-.09-.413-.184-.622-.27a4.314,4.314,0,0,1-2.5-1.926Z" transform="translate(861.792 325.121)" fill="#eeae2d"/>
      <path id="Path_10689" data-name="Path 10689" d="M36.224,113.835c-.6-.224-1.2-.428-1.785-.676a3.831,3.831,0,0,1-2.046-1.708v-4.668a6.525,6.525,0,0,0,.73.964,6.738,6.738,0,0,0,2.892,1.4,25.737,25.737,0,0,0,8.892.844c1.51-.122,3.011-.354,4.516-.537.08.837.134,1.677.25,2.509.091.653.26,1.3.4,1.942-1.058.189-2.11.46-3.176.549-1.6.134-3.218.182-4.827.187a18.946,18.946,0,0,1-2.713-.249c-1.048-.149-2.086-.366-3.129-.553" transform="translate(861.792 290.663)" fill="#eeae2d"/>
      <path id="Path_10690" data-name="Path 10690" d="M49.423,103.551c-1.5.182-3.006.415-4.516.537a25.738,25.738,0,0,1-8.892-.844,6.731,6.731,0,0,1-2.892-1.4,6.524,6.524,0,0,1-.73-.964v-.641A7.162,7.162,0,0,1,33.451,99.1a12.32,12.32,0,0,1,1.692-.862c.049.09.075.213.151.266a11.561,11.561,0,0,0,1.558,1.02,18.55,18.55,0,0,0,6.466,1.545c.6.05,1.211.1,1.817.111.8.02,1.605.022,2.408.008.675-.011,1.348-.056,2.022-.086-.05.84-.1,1.64-.147,2.439Z" transform="translate(861.792 296.562)" fill="#fde18d"/>
      <path id="Path_10691" data-name="Path 10691" d="M62.52,141.013a28.21,28.21,0,0,1-3.4,1.119,28.331,28.331,0,0,1-12.983-.322,13.308,13.308,0,0,1-2.708-1.166,1.943,1.943,0,0,1-1.064-1.964c.063-1.262.025-2.528.031-3.793a3.773,3.773,0,0,0,2.2,1.8A20.421,20.421,0,0,0,51.7,138.06a45.532,45.532,0,0,0,4.556-.093c.961-.061,1.911-.289,2.866-.442l.1.012a2.634,2.634,0,0,0,.217.436,16.333,16.333,0,0,0,3.075,3.04" transform="translate(854.915 271.266)" fill="#eeae2d"/>
      <path id="Path_10692" data-name="Path 10692" d="M138.725,69.731a14.035,14.035,0,0,1,13.3,13.305H149.7c-.148-.8-.24-1.619-.455-2.4a11.473,11.473,0,0,0-5.8-7.216,12.277,12.277,0,0,0-4.731-1.365l.009-2.322" transform="translate(788.413 316.234)" fill="#eeae2e"/>
      <path id="Path_10693" data-name="Path 10693" d="M152.021,117.425a14.012,14.012,0,0,1-13.3,13.289q0-1.2-.007-2.4a5.926,5.926,0,0,0,.776-.016,11.71,11.71,0,0,0,5.985-2.651,11.1,11.1,0,0,0,3.569-5.175,31.034,31.034,0,0,0,.654-3.053h2.32" transform="translate(788.412 283.318)" fill="#eeae2e"/>
      <path id="Path_10694" data-name="Path 10694" d="M97.688,71.769a26.817,26.817,0,0,1,3.111-1.356,32.03,32.03,0,0,1,3.556-.674q0,1.163,0,2.327c-.789.135-1.595.207-2.362.418a11.428,11.428,0,0,0-6.105,4.078,10.691,10.691,0,0,0-2.424,6.489l-1.681,0c-.74,0-.817-.1-.675-.842.006-.029.023-.057.028-.086q.159-1,.317-2a4.679,4.679,0,0,0,.191-.452A14.139,14.139,0,0,1,94.108,75a8.982,8.982,0,0,1,.862-.986c.888-.767,1.809-1.5,2.717-2.241" transform="translate(821.31 316.228)" fill="#eeae2d"/>
      <path id="Path_10695" data-name="Path 10695" d="M104.445,130.693a13.746,13.746,0,0,1-6.792-2.147c-.141-.087-.289-.163-.433-.244a1.9,1.9,0,0,0-.147-.167c-.761-.681-1.526-1.357-2.285-2.041-.3-.267-.579-.548-.868-.823a3.777,3.777,0,0,0-.2-.487c-.344-.586-.737-1.146-1.043-1.751-.354-.7-.635-1.433-.947-2.152q-.021-.134-.042-.268l-.506-3.212,2.372,0a23.879,23.879,0,0,0,.533,2.934,11.071,11.071,0,0,0,3.781,5.454,10.9,10.9,0,0,0,6.588,2.516q0,1.2-.007,2.393" transform="translate(821.221 283.337)" fill="#eead2d"/>
      <path id="Path_10696" data-name="Path 10696" d="M59.2,136.067c-.955.153-1.906.381-2.866.442a45.441,45.441,0,0,1-4.556.093,20.421,20.421,0,0,1-7.111-1.369,3.773,3.773,0,0,1-2.2-1.8l.069-.654c.148.025.3.049.445.075,1.385.248,2.761.586,4.156.721a36.072,36.072,0,0,0,4.42.1c1.177-.031,2.353-.191,3.524-.338.789-.1,1.57-.274,2.268-.4l1.848,3.13" transform="translate(854.837 272.723)" fill="#fde18d"/>
      <path id="Path_10697" data-name="Path 10697" d="M42.462,72.878c0-.063,0-.125-.006-.188,1.019.223,2.031.494,3.059.657a24.713,24.713,0,0,0,3.247.333,38.718,38.718,0,0,0,4.374-.093,17.206,17.206,0,0,0,6.4-1.567,2.661,2.661,0,0,0,1.693-2.034l1,.394a7.527,7.527,0,0,1-.481,1.248,4.317,4.317,0,0,1-2.075,1.576,18.065,18.065,0,0,1-6.25,1.478c-1.756.127-3.524.092-5.287.1a10.343,10.343,0,0,1-1.444-.145c-.9-.122-1.8-.261-2.693-.392a3.049,3.049,0,0,1-1.546-1.37" transform="translate(854.847 316.057)" fill="#ffd245"/>
      <path id="Path_10698" data-name="Path 10698" d="M59.355,133.217l-1.849-3.13c-.7.125-1.479.3-2.268.4-1.171.147-2.347.306-3.524.338a36.072,36.072,0,0,1-4.42-.1c-1.4-.135-2.772-.473-4.156-.721-.148-.027-.3-.05-.445-.075l.639-1c1.042.187,2.081.4,3.128.553a18.945,18.945,0,0,0,2.713.249c1.61,0,3.224-.052,4.827-.187,1.067-.089,2.118-.36,3.176-.549l1.087-.345c.312.719.593,1.453.947,2.152.306.6.7,1.165,1.043,1.751a3.779,3.779,0,0,1,.2.487l-1,.195-.1-.012" transform="translate(854.684 275.574)" fill="#ffd245"/>
      <path id="Path_10699" data-name="Path 10699" d="M47.465,75.126c.9.132,1.794.27,2.693.392a10.337,10.337,0,0,0,1.444.145c1.763-.01,3.531.025,5.287-.1a18.072,18.072,0,0,0,6.25-1.479,4.316,4.316,0,0,0,2.075-1.576,7.534,7.534,0,0,0,.481-1.248l1.077.676a2.22,2.22,0,0,1-.243.294c-.861.74-1.773,1.429-2.576,2.227a17.715,17.715,0,0,0-1.493,1.929l-.165.042c-1.172.143-2.342.359-3.519.413A28.608,28.608,0,0,1,50.4,76.2a28.918,28.918,0,0,1-2.934-1.075" transform="translate(851.39 315.179)" fill="#fde18c"/>
      <path id="Path_10700" data-name="Path 10700" d="M95.862,77.89a17.746,17.746,0,0,1,1.493-1.929c.8-.8,1.715-1.487,2.576-2.227a2.174,2.174,0,0,0,.243-.293l.834.882c-.908.745-1.829,1.474-2.717,2.241a8.983,8.983,0,0,0-.862.986l-1.567.34" transform="translate(817.989 313.673)" fill="#ffd246"/>
      <path id="Path_10701" data-name="Path 10701" d="M134,151.662q0-1.2.007-2.394l.081-1.077c.417-.55.877-.551,1.293,0l.082,1.077q0,1.2.007,2.4c-.14.317-.323.6-.712.608-.414.012-.605-.281-.758-.609" transform="translate(791.669 262.369)" fill="#ffd145"/>
      <path id="Path_10702" data-name="Path 10702" d="M133.978,70.717q0-1.163,0-2.327c.162-.316.333-.618.76-.605.4.012.568.293.713.6q0,1.161-.009,2.322-.04.58-.081,1.161c-.4.541-.741.542-1.389,0q0-.578.006-1.157" transform="translate(791.687 317.577)" fill="#ffd145"/>
      <path id="Path_10703" data-name="Path 10703" d="M173,114.146h-2.32l-1.177,0a1.016,1.016,0,0,0-.111-.188c-.411-.442-.37-.828.133-1.2l1.154-.09H173c.315.141.591.314.6.713.014.427-.292.6-.609.76" transform="translate(767.436 286.597)" fill="#ffd145"/>
      <path id="Path_10704" data-name="Path 10704" d="M96.8,143.007l1-.195c.289.275.572.556.868.824.759.684,1.524,1.36,2.285,2.041a1.858,1.858,0,0,1,.147.167l-1.008.639a16.333,16.333,0,0,1-3.075-3.04,2.683,2.683,0,0,1-.217-.436" transform="translate(817.339 265.796)" fill="#e59225"/>
      <path id="Path_10705" data-name="Path 10705" d="M89.076,119.358l-1.087.345c-.134-.647-.3-1.289-.395-1.942-.117-.832-.17-1.672-.25-2.509l-.006-.011.516-.052-.056.088.729.6.506,3.213.042.268" transform="translate(823.872 284.861)" fill="#e59225"/>
      <path id="Path_10706" data-name="Path 10706" d="M56.731,103.337l-.729-.6.055-.088-.516.052.147-2.439c-.674.03-1.347.074-2.022.086q-1.2.02-2.408-.008c-.606-.015-1.212-.061-1.817-.111a18.547,18.547,0,0,1-6.466-1.545,11.54,11.54,0,0,1-1.558-1.02c-.076-.052-.1-.175-.151-.266l1.084-.377c.271.166.534.349.815.5A18.389,18.389,0,0,0,50.6,99.2c1.3.091,2.618.031,3.927.008.493-.009.983-.106,1.475-.162l1.1-.1q-.158,1-.317,2c0,.029-.022.057-.028.086-.143.746-.065.842.675.842l1.68,0,1.083-.009c.534.654.533.939,0,1.391l-1.081.072-2.372,0" transform="translate(855.668 297.401)" fill="#ffd245"/>
      <path id="Path_10707" data-name="Path 10707" d="M56.758,86.834c-.492.057-.983.154-1.475.162-1.309.023-2.624.082-3.927-.008A18.388,18.388,0,0,1,43.925,85.3c-.281-.147-.544-.33-.815-.5a2.261,2.261,0,0,1-.739-1.963c.052-1.172.023-2.347.029-3.521a3.048,3.048,0,0,0,1.546,1.37,28.886,28.886,0,0,0,2.933,1.075,28.607,28.607,0,0,0,8.378.639c1.177-.054,2.346-.271,3.519-.414l-.559,1.038a13.617,13.617,0,0,0-1.46,3.807" transform="translate(854.909 309.617)" fill="#eeae2d"/>
      <path id="Path_10708" data-name="Path 10708" d="M149.518,88.208l-1.154.09c-.089-.616-.131-1.242-.273-1.845a10.529,10.529,0,0,0-9.637-8.068q.04-.58.081-1.161a12.285,12.285,0,0,1,4.732,1.365,11.472,11.472,0,0,1,5.8,7.217c.215.783.306,1.6.455,2.4" transform="translate(788.593 311.062)" fill="#e59225"/>
      <path id="Path_10709" data-name="Path 10709" d="M148.342,117.429l1.178,0a31.212,31.212,0,0,1-.654,3.053,11.1,11.1,0,0,1-3.57,5.175,11.712,11.712,0,0,1-5.985,2.651,6.033,6.033,0,0,1-.775.016l-.082-1.077c.257-.02.517-.024.772-.063a10.468,10.468,0,0,0,5.524-2.515,10.223,10.223,0,0,0,3.592-7.235" transform="translate(788.594 283.318)" fill="#e59225"/>
      <path id="Path_10710" data-name="Path 10710" d="M99.924,88.225l-1.083.01a10.689,10.689,0,0,1,2.424-6.489,11.426,11.426,0,0,1,6.105-4.078c.767-.212,1.574-.283,2.362-.418q0,.578-.006,1.157c-.332.038-.665.066-.994.117a10.548,10.548,0,0,0-8.808,9.7" transform="translate(815.933 311.045)" fill="#e59225"/>
      <path id="Path_10711" data-name="Path 10711" d="M88.814,91.93a13.617,13.617,0,0,1,1.46-3.807l.559-1.038L91,87.043l1.567-.34A14.141,14.141,0,0,0,90.1,91.375a4.71,4.71,0,0,1-.191.452l-1.1.1" transform="translate(822.853 304.52)" fill="#e59125"/>
      <path id="Path_10712" data-name="Path 10712" d="M98.832,117.234l1.081-.072a10.551,10.551,0,0,0,9.9,9.9l-.081,1.077a10.9,10.9,0,0,1-6.588-2.516,11.069,11.069,0,0,1-3.781-5.454,23.889,23.889,0,0,1-.533-2.934" transform="translate(815.939 283.499)" fill="#e59225"/>
      <path id="Path_10713" data-name="Path 10713" d="M112.225,102.083a10.55,10.55,0,0,1-9.9-9.9c.537-.452.538-.737,0-1.391a10.548,10.548,0,0,1,8.807-9.7c.33-.05.663-.078.995-.117.648.539.989.538,1.389,0a10.529,10.529,0,0,1,9.636,8.068c.141.6.184,1.23.273,1.845-.5.371-.543.756-.132,1.2a1.008,1.008,0,0,1,.111.188,10.223,10.223,0,0,1-3.592,7.235,10.469,10.469,0,0,1-5.524,2.515c-.255.038-.515.042-.773.063-.415-.55-.876-.549-1.293,0" transform="translate(813.53 308.476)" fill="#fde18d"/>
      <path id="Path_10714" data-name="Path 10714" d="M18.717,49.185a23.842,23.842,0,0,1-9.656-4.721A24.04,24.04,0,0,1,3.3,37.811,24.261,24.261,0,0,1,.37,29.654a25.073,25.073,0,0,1-.35-5.284A25.874,25.874,0,0,1,2.24,14.784,24.175,24.175,0,0,1,8.111,6.772a24.917,24.917,0,0,1,4.7-3.366A26.526,26.526,0,0,1,21.276.389a25.388,25.388,0,0,1,12.3.871,25.592,25.592,0,0,1,8.482,4.751c.316.266.652.51.945.8a.339.339,0,0,0,.525.028c.622-.449,1.255-.882,1.887-1.317.1-.072.207-.208.347-.135.121.063.063.213.073.326.145,1.642.294,3.283.429,4.925.1,1.247.187,2.5.284,3.743.053.689.13,1.377.171,2.068.029.5,0,.509-.475.287q-1.462-.689-2.924-1.377-3.363-1.589-6.724-3.181c-.13-.061-.253-.136-.44-.239.668-.46,1.284-.882,1.9-1.307.493-.341.5-.354.073-.747a20.15,20.15,0,0,0-10.277-5.1,19.175,19.175,0,0,0-3.69-.328,22.873,22.873,0,0,0-9.2,2.072,22.164,22.164,0,0,0-6.89,4.882,20.986,20.986,0,0,0-4.439,7.126,22.125,22.125,0,0,0-1.385,5.742A23.453,23.453,0,0,0,4.089,36.285,22.839,22.839,0,0,0,9.8,44.031a23.594,23.594,0,0,0,8.919,5.01v.143" transform="translate(884.149 364.36)" fill="#c92034"/>
      <path id="Path_10715" data-name="Path 10715" d="M60.411,158.426v-.143l1.394.355a3.9,3.9,0,0,1-1.394-.212" transform="translate(842.456 255.119)" fill="#c92034"/>
    </g>
  </g>
</svg>
