<svg id="Group_3347" data-name="Group 3347" xmlns="http://www.w3.org/2000/svg" xmlns:xlink="http://www.w3.org/1999/xlink" width="58" height="58" viewBox="0 0 58 58">
  <defs>
    <clipPath id="clip-path">
      <rect id="Rectangle_247" data-name="Rectangle 247" width="36.157" height="34.943" fill="#333"/>
    </clipPath>
  </defs>
  <rect id="Rectangle_248" data-name="Rectangle 248" width="58" height="58" rx="4" fill="#a2ffc1" opacity="0"/>
  <g id="Group_3227" data-name="Group 3227" transform="translate(12.907 15.728)">
    <g id="Group_3226" data-name="Group 3226" transform="translate(0 0)" clip-path="url(#clip-path)">
      <path id="Path_10612" data-name="Path 10612" d="M0,32.234V17.192a2.544,2.544,0,0,1,1.378-1.435,4.014,4.014,0,0,1,.709-.31c.267-.075.326-.217.325-.48Q2.4,9.672,2.407,4.377A4.215,4.215,0,0,1,6.761,0Q19.258,0,31.756,0a1.819,1.819,0,0,1,1.994,2q0,2.454,0,4.907v.368a3.058,3.058,0,0,1,2.4,3.046q.005,8.967,0,17.934a3.351,3.351,0,0,1-.1.836A2.99,2.99,0,0,1,33,31.327q-7.52,0-15.039,0H17.5a1.707,1.707,0,0,0-.026.281,1.829,1.829,0,0,1-1.107,1.883,10.154,10.154,0,0,1-1.918.779,21.87,21.87,0,0,1-6.609.656,18.39,18.39,0,0,1-5.518-.867A3.307,3.307,0,0,1,0,32.234m34.953-15.96v-.421q0-2.666,0-5.331a1.849,1.849,0,0,0-2.081-2.086q-13.045,0-26.091,0A4.335,4.335,0,0,1,3.807,7.347a1.25,1.25,0,0,0-.178-.107v7.687a.7.7,0,0,0,.121.014,1.763,1.763,0,0,0,.21-.027,25.145,25.145,0,0,1,9.366-.045,8.555,8.555,0,0,1,3.142,1.1,2,2,0,0,1,1.017,1.84c-.026,3.942-.012,7.885-.012,11.827v.49h.382q7.573,0,15.146,0a1.807,1.807,0,0,0,1.952-1.963q0-2.754,0-5.508c0-.113-.012-.225-.019-.349-.124-.006-.217-.014-.309-.014-.871,0-1.743.027-2.612-.012a3.908,3.908,0,0,1-1.3-.259,3,3,0,0,1,1.148-5.742c1.011-.015,2.023,0,3.093,0M32.506,3.621a.768.768,0,0,0,.035-.125q0-.671,0-1.342c0-.8-.144-.945-.945-.945H6.921c-.2,0-.4,0-.6.018a3.011,3.011,0,0,0,.432,6q12.711,0,25.421,0c.114,0,.227-.011.344-.017V4.825H5.766a3.035,3.035,0,0,1-.388-.008.614.614,0,0,1-.557-.622.6.6,0,0,1,.6-.571c.129-.008.259,0,.388,0H32.506ZM8.816,15.665a21.743,21.743,0,0,0-5.088.538,6.341,6.341,0,0,0-2.24.9c-.367.264-.378.5,0,.734a6.391,6.391,0,0,0,1.259.616,16.78,16.78,0,0,0,4.99.8,20.323,20.323,0,0,0,6.529-.662A8.844,8.844,0,0,0,16.02,17.8c.344-.192.337-.447,0-.658a6.516,6.516,0,0,0-1.316-.654,18.658,18.658,0,0,0-5.89-.825m7.444,3.473A17.288,17.288,0,0,1,8.725,20.48,17.164,17.164,0,0,1,1.2,19.132c0,.59.018,1.143-.007,1.694a.657.657,0,0,0,.38.691,9.887,9.887,0,0,0,1.612.687,22.039,22.039,0,0,0,10.543.148,11.645,11.645,0,0,0,2.067-.776.785.785,0,0,0,.44-.5c.054-.628.021-1.263.021-1.943M1.2,22.753c0,.565.028,1.093-.009,1.616a.761.761,0,0,0,.467.823,10.284,10.284,0,0,0,1.659.67,22.722,22.722,0,0,0,10.069.2,6.915,6.915,0,0,0,2.439-.88c.168-.107.4-.287.407-.447.047-.647.019-1.3.019-1.965A21.639,21.639,0,0,1,1.2,22.753m0,3.612c0,.58.023,1.121-.008,1.659a.7.7,0,0,0,.411.747,10.479,10.479,0,0,0,1.686.7,22.7,22.7,0,0,0,9.866.256,7.673,7.673,0,0,0,2.591-.878c.193-.114.463-.3.478-.473.056-.655.023-1.318.023-2C13,28.128,4.644,28.189,1.2,26.365m0,3.616a14.459,14.459,0,0,1-.011,1.5.969.969,0,0,0,.634,1.051,10.009,10.009,0,0,0,2.988.905,24.847,24.847,0,0,0,6.994.128,12.513,12.513,0,0,0,3.609-.909,1.166,1.166,0,0,0,.86-1.339,9.785,9.785,0,0,1-.011-1.328,17.492,17.492,0,0,1-7.533,1.335A17.365,17.365,0,0,1,1.2,29.981M34.945,17.475c-1,0-1.976,0-2.95,0a1.8,1.8,0,1,0,0,3.607c.894.007,1.789,0,2.683,0a2.42,2.42,0,0,0,.269-.03Z" transform="translate(0 0)" fill="#333"/>
    </g>
  </g>
  <path id="Icon_awesome-arrow-up" data-name="Icon awesome-arrow-up" d="M1.254,9.788.6,9.138a.7.7,0,0,1,0-.993L6.293,2.453a.7.7,0,0,1,.993,0l5.689,5.689a.7.7,0,0,1,0,.993l-.65.65a.7.7,0,0,1-1-.012L7.962,6.248v8.416a.7.7,0,0,1-.7.7H6.322a.7.7,0,0,1-.7-.7V6.248L2.258,9.776a.7.7,0,0,1-1,.012Z" transform="translate(5.07 4.953)" fill="#333"/>
</svg>
