<svg id="Group_3188" data-name="Group 3188" xmlns="http://www.w3.org/2000/svg" xmlns:xlink="http://www.w3.org/1999/xlink" width="65.448" height="64" viewBox="0 0 65.448 64">
  <defs>
    <clipPath id="clip-path">
      <rect id="Rectangle_241" data-name="Rectangle 241" width="24.893" height="36.531" fill="#333"/>
    </clipPath>
  </defs>
  <g id="Rectangle_239" data-name="Rectangle 239" fill="#fff" stroke="#707070" stroke-width="1" opacity="0">
    <rect width="65.448" height="64" stroke="none"/>
    <rect x="0.5" y="0.5" width="64.448" height="63" fill="none"/>
  </g>
  <g id="Group_3189" data-name="Group 3189" transform="translate(20.277 13.735)">
    <g id="Group_3189-2" data-name="Group 3189" clip-path="url(#clip-path)">
      <path id="Path_2198" data-name="Path 2198" d="M0,18.244Q0,11.457,0,4.67A4.415,4.415,0,0,1,3.14.249,5.39,5.39,0,0,1,4.733.013Q12.445-.013,20.157,0a4.5,4.5,0,0,1,4.728,4.584c.017,2.948,0,5.9,0,8.846q0,9.192,0,18.384a4.435,4.435,0,0,1-2.98,4.41,5.259,5.259,0,0,1-1.667.286q-7.8.032-15.59.009A4.5,4.5,0,0,1,.005,31.9C0,27.348,0,22.8,0,18.244m23.115.036q0-6.766,0-13.532a2.8,2.8,0,0,0-3.091-3.012q-7.586,0-15.172,0a2.8,2.8,0,0,0-3.08,3.022q0,13.512,0,27.023a2.808,2.808,0,0,0,3.091,3.013q7.586,0,15.172,0a2.806,2.806,0,0,0,3.08-3.023q0-6.746,0-13.491" transform="translate(0 0)" fill="#333"/>
      <path id="Path_2199" data-name="Path 2199" d="M90.453,260.694a2.607,2.607,0,1,1-.011-5.213,2.608,2.608,0,1,1,.011,5.213m0-3.459a.876.876,0,0,0-.883.846.89.89,0,0,0,1.779-.014.876.876,0,0,0-.9-.832" transform="translate(-78.014 -227.655)" fill="#333"/>
      <path id="Path_2200" data-name="Path 2200" d="M76.159,33.748c-1.152,0-2.3.01-3.457,0a.846.846,0,0,1-.8-1.294,1.091,1.091,0,0,1,.745-.413c2.373-.031,4.747-.024,7.121-.014a.826.826,0,0,1,.871.846.851.851,0,0,1-.9.873c-1.194.013-2.388,0-3.582,0" transform="translate(-63.757 -28.529)" fill="#333"/>
    </g>
  </g>
</svg>
