<svg xmlns="http://www.w3.org/2000/svg" xmlns:xlink="http://www.w3.org/1999/xlink" width="63" height="63" viewBox="0 0 63 63">
  <defs>
    <clipPath id="clip-path">
      <rect id="Rectangle_277" data-name="Rectangle 277" width="32.889" height="41.491" fill="#9e9e9e" stroke="#9e9e9e" stroke-width="0.5"/>
    </clipPath>
  </defs>
  <g id="Group_3259" data-name="Group 3259" transform="translate(-1081.805 -294.555)">
    <rect id="Rectangle_248" data-name="Rectangle 248" width="63" height="63" rx="4" transform="translate(1081.805 294.555)" fill="#a2ffc1" opacity="0"/>
    <g id="Group_3272" data-name="Group 3272" transform="translate(1098.861 305.31)">
      <g id="Group_3272-2" data-name="Group 3272" clip-path="url(#clip-path)">
        <path id="Path_10652" data-name="Path 10652" d="M25.2.411a1.2,1.2,0,0,1-.506-.018A10.99,10.99,0,0,0,22.766.02C16.735-.009,10.7,0,4.672,0A4.486,4.486,0,0,0,0,4.69c0,2.754,0,24.24,0,28.216A4.177,4.177,0,0,0,.636,35.1,4.541,4.541,0,0,0,4.22,37.3c0,.293-.008.579,0,.865a3.406,3.406,0,0,0,3.32,3.3q6.135.038,12.27,0a3.357,3.357,0,0,0,3.25-2.819c.073-.443.074-.9.107-1.342.307-.063.607-.1.895-.186a4.48,4.48,0,0,0,3.286-4.474c0-6.6,0-20.117,0-20.315.215-.038.391-.07.567-.1A6.073,6.073,0,1,0,25.2.411m-11.5,40.081h-.434c-1.748,0-3.5-.059-5.243.017a2.594,2.594,0,0,1-2.775-3.171h8.452Zm3.634-.029H14.737V37.335h2.591Zm1.03-.008v-3.1H22.09c.441,2.09-1.131,3.41-3.731,3.1M26.353,33a3.5,3.5,0,0,1-3.473,3.3c-6.142-.007-12.283,0-18.425-.01A3.5,3.5,0,0,1,3.4,36.119,3.444,3.444,0,0,1,.994,32.732c0-3.917-.009-26.1,0-28.271A3.445,3.445,0,0,1,4.393,1C10.576.985,16.76,1,22.943,1a6.6,6.6,0,0,1,.677.078,6.077,6.077,0,0,0-2.475,3.029.493.493,0,0,1-.569.376C17.4,4.47,7.755,4.469,6.117,4.477A2.615,2.615,0,0,0,3.369,7.229c0,.509,0,1.019,0,1.528a2.612,2.612,0,0,0,2.842,2.816q7.147,0,14.294,0A3.553,3.553,0,0,0,23,11.009a6.288,6.288,0,0,0,3.362,1.333c0,.171,0,20.489-.007,20.654m-4.036-22.61a7.261,7.261,0,0,1-1.121.189c-4.06.012-8.119.008-12.179.008-.991,0-1.982,0-2.973,0A1.6,1.6,0,0,1,4.363,8.934c-.012-.619-.014-1.239,0-1.858a1.6,1.6,0,0,1,1.52-1.6c.123-.011.247-.007.371-.007H20.768a6.3,6.3,0,0,0,1.549,4.919m4.547.942a5.073,5.073,0,1,1,.019-10.146A5.1,5.1,0,0,1,31.9,6.36a5.049,5.049,0,0,1-5.033,4.967" transform="translate(0 0.001)" fill="#9e9e9e" stroke="#9e9e9e" stroke-width="0.5"/>
        <path id="Path_10653" data-name="Path 10653" d="M43.732,182.269a7.426,7.426,0,0,1-.056.987,1.956,1.956,0,0,1-1.833,1.569c-.467.023-.936.022-1.4,0a1.944,1.944,0,0,1-1.883-1.836,12.341,12.341,0,0,1-.005-1.443,1.907,1.907,0,0,1,1.705-1.871,7.693,7.693,0,0,1,1.728,0,1.924,1.924,0,0,1,1.729,1.937c.006.22,0,.44,0,.66h.016m-1.006,0c0-.192,0-.384,0-.577a.993.993,0,0,0-1.058-1.057c-.371-.01-.742-.013-1.112,0a.972.972,0,0,0-1.011.975,11.846,11.846,0,0,0,0,1.235.977.977,0,0,0,1.036.994c.315.009.632,0,.947,0,.847,0,1.2-.354,1.2-1.2,0-.124,0-.247,0-.371" transform="translate(-34.28 -159.795)" fill="#9e9e9e" stroke="#9e9e9e" stroke-width="0.5"/>
        <path id="Path_10654" data-name="Path 10654" d="M101.048,182.248a6.254,6.254,0,0,1,.008-.947,1.914,1.914,0,0,1,1.7-1.614,8.031,8.031,0,0,1,1.729,0,1.88,1.88,0,0,1,1.7,1.745,8.181,8.181,0,0,1,0,1.646,1.938,1.938,0,0,1-1.951,1.765c-.4.01-.8.009-1.2,0a1.98,1.98,0,0,1-2.006-2.02c0-.193,0-.385,0-.578h.023m.968-.007c0,.165,0,.33,0,.494a1.016,1.016,0,0,0,1.123,1.121c.151,0,.3,0,.453,0,1.411,0,1.629-.216,1.629-1.613,0-1.366-.232-1.567-1.606-1.605-1.151-.032-1.7.214-1.6,1.6" transform="translate(-89.872 -159.811)" fill="#9e9e9e" stroke="#9e9e9e" stroke-width="0.5"/>
        <path id="Path_10655" data-name="Path 10655" d="M101.047,243.649a6.437,6.437,0,0,1,.007-.947,1.929,1.929,0,0,1,1.732-1.628,8.307,8.307,0,0,1,1.648,0,1.893,1.893,0,0,1,1.747,1.745,8.134,8.134,0,0,1,0,1.646,1.941,1.941,0,0,1-1.985,1.773c-.371.005-.743,0-1.114,0a1.979,1.979,0,0,1-2.057-2.051c0-.179,0-.358,0-.536h.022m2.545,1.6c.192,0,.385,0,.577,0a.976.976,0,0,0,1.039-.949,8.872,8.872,0,0,0,0-1.317.961.961,0,0,0-.971-.933,10.885,10.885,0,0,0-1.236,0,.984.984,0,0,0-.981,1.051c-.007.329,0,.659,0,.989a1.021,1.021,0,0,0,1.163,1.161c.137,0,.275,0,.412,0" transform="translate(-89.873 -214.425)" fill="#9e9e9e" stroke="#9e9e9e" stroke-width="0.5"/>
        <path id="Path_10656" data-name="Path 10656" d="M103.463,120.935a2.148,2.148,0,0,1-2.593-2.581,8.308,8.308,0,0,1,.088-1.144,1.873,1.873,0,0,1,1.758-1.432c.453-.024.908-.022,1.361-.008a1.925,1.925,0,0,1,1.958,1.8,8.171,8.171,0,0,1,0,1.565,1.934,1.934,0,0,1-1.995,1.8c-.192,0-.385,0-.578,0m-.018-.991h.412c.848,0,1.2-.356,1.212-1.2,0-.124,0-.247,0-.371,0-1.417-.2-1.592-1.614-1.63-1.207-.033-1.615.233-1.612,1.6,0,1.322.35,1.681,1.6,1.6" transform="translate(-89.719 -102.98)" fill="#9e9e9e" stroke="#9e9e9e" stroke-width="0.5"/>
        <path id="Path_10657" data-name="Path 10657" d="M43.73,243.619a2.16,2.16,0,0,1-2.59,2.607,8.968,8.968,0,0,1-1.1-.083,1.864,1.864,0,0,1-1.456-1.693,12.081,12.081,0,0,1-.011-1.525,1.914,1.914,0,0,1,1.759-1.866,7.906,7.906,0,0,1,1.647,0,1.932,1.932,0,0,1,1.755,1.958c.005.206,0,.413,0,.6m-.99,0c0-.151,0-.3,0-.453a1.02,1.02,0,0,0-1.145-1.141c-.137,0-.275,0-.412,0-1.434,0-1.611.205-1.646,1.643-.027,1.114.2,1.623,1.592,1.577,1.42-.047,1.611-.2,1.611-1.625" transform="translate(-34.294 -214.411)" fill="#9e9e9e" stroke="#9e9e9e" stroke-width="0.5"/>
        <path id="Path_10658" data-name="Path 10658" d="M164.549,120.692c-1.781.166-2.622-.833-2.623-2.583a2.623,2.623,0,0,1,5.245,0c0,1.733-.822,2.751-2.622,2.586m-1.6-2.612c0,.179,0,.358,0,.537a.975.975,0,0,0,1.07,1.082c.385.007.772.012,1.156,0a.932.932,0,0,0,.953-.939c.022-.426.022-.854,0-1.28a.94.94,0,0,0-.981-.956c-.344-.016-.688-.009-1.032-.006-.815.009-1.158.349-1.168,1.154,0,.138,0,.275,0,.413" transform="translate(-144.051 -102.737)" fill="#9e9e9e" stroke="#9e9e9e" stroke-width="0.5"/>
        <path id="Path_10659" data-name="Path 10659" d="M162.262,182.358c0-.22-.008-.44,0-.66a1.863,1.863,0,0,1,1.59-1.835,7.653,7.653,0,0,1,2.008.006,1.839,1.839,0,0,1,1.555,1.777,13.9,13.9,0,0,1,0,1.484,1.943,1.943,0,0,1-1.868,1.851c-.466.023-.936.023-1.4,0a1.959,1.959,0,0,1-1.885-1.923c-.009-.233,0-.468,0-.7h0m.991.117c0,.14-.01.347,0,.552a.96.96,0,0,0,.935.962,11.577,11.577,0,0,0,1.317,0,.946.946,0,0,0,.92-.93c.021-.315.012-.631.012-.947,0-1.008-.318-1.321-1.334-1.322-.082,0-.165,0-.247,0-1.216-.073-1.707.228-1.605,1.687" transform="translate(-144.346 -159.952)" fill="#9e9e9e" stroke="#9e9e9e" stroke-width="0.5"/>
        <path id="Path_10660" data-name="Path 10660" d="M162.255,243.792c0-.234-.01-.468,0-.7a1.859,1.859,0,0,1,1.574-1.805,7.862,7.862,0,0,1,2.008,0,1.837,1.837,0,0,1,1.567,1.765,13.373,13.373,0,0,1,0,1.526,1.942,1.942,0,0,1-1.891,1.826c-.412.015-.825.008-1.238,0a1.969,1.969,0,0,1-2.027-1.994c-.005-.206,0-.413,0-.619h0m4.177.033c0-.137,0-.275,0-.412-.008-.842-.367-1.2-1.2-1.208-.124,0-.247.006-.371,0-1.179-.067-1.679.192-1.628,1.618.05,1.393.209,1.592,1.6,1.592s1.6-.2,1.6-1.589" transform="translate(-144.337 -214.592)" fill="#9e9e9e" stroke="#9e9e9e" stroke-width="0.5"/>
        <path id="Path_10661" data-name="Path 10661" d="M43.766,118.363a7.755,7.755,0,0,1-.135,1.18,1.874,1.874,0,0,1-1.755,1.381c-.48.019-.963.02-1.443,0a1.911,1.911,0,0,1-1.855-1.762,11.068,11.068,0,0,1,0-1.607,1.909,1.909,0,0,1,1.836-1.782c.439-.024.88-.02,1.319-.009a1.949,1.949,0,0,1,2,2.016c0,.193,0,.385,0,.578l.037,0m-1.028-.033v-.207c0-1.089-.28-1.369-1.366-1.37h-.207c-1.432,0-1.622.19-1.622,1.615,0,1.37.2,1.574,1.577,1.574,1.439,0,1.617-.178,1.617-1.611" transform="translate(-34.291 -102.979)" fill="#9e9e9e" stroke="#9e9e9e" stroke-width="0.5"/>
        <path id="Path_10662" data-name="Path 10662" d="M208.719,31.243a4.423,4.423,0,0,1,4.182,2.926c.14.4.05.7-.262.783-.374.1-.543-.127-.668-.443a3.46,3.46,0,0,0-6.5-.005c-.163.408-.405.56-.7.438s-.37-.393-.22-.806a4.441,4.441,0,0,1,4.167-2.894" transform="translate(-181.905 -27.794)" fill="#9e9e9e" stroke="#9e9e9e" stroke-width="0.5"/>
        <path id="Path_10663" data-name="Path 10663" d="M222.2,51.381A2.679,2.679,0,0,1,224.7,53.09c.134.364.049.661-.242.761-.343.118-.544-.055-.671-.363a1.7,1.7,0,0,0-3.178-.02c-.166.377-.418.513-.694.375-.347-.174-.339-.457-.217-.772a2.689,2.689,0,0,1,2.508-1.689" transform="translate(-195.375 -45.709)" fill="#9e9e9e" stroke="#9e9e9e" stroke-width="0.5"/>
        <path id="Path_10664" data-name="Path 10664" d="M239.056,74.193a.479.479,0,0,1-.489-.5.452.452,0,0,1,.456-.518.469.469,0,0,1,.514.5.49.49,0,0,1-.481.511" transform="translate(-212.232 -65.098)" fill="#9e9e9e" stroke="#9e9e9e" stroke-width="0.5"/>
      </g>
    </g>
  </g>
</svg>
