<svg xmlns="http://www.w3.org/2000/svg" xmlns:xlink="http://www.w3.org/1999/xlink" width="58" height="58" viewBox="0 0 58 58">
  <defs>
    <clipPath id="clip-path">
      <rect id="Rectangle_2668" data-name="Rectangle 2668" width="43.069" height="24.616" fill="none"/>
    </clipPath>
  </defs>
  <g id="Group_3228" data-name="Group 3228" transform="translate(-1081.805 -294.805)">
    <rect id="Rectangle_248" data-name="Rectangle 248" width="58" height="58" rx="4" transform="translate(1081.805 294.805)" fill="#a2ffc1" opacity="0"/>
    <g id="Group_3385" data-name="Group 3385" transform="translate(1089.271 311.498)">
      <g id="Group_3385-2" data-name="Group 3385" clip-path="url(#clip-path)">
        <path id="Path_10682" data-name="Path 10682" d="M277.736,76.283q-1.608,0-3.216,0c-.556,0-.739-.156-.834-.712a13.556,13.556,0,0,0-2.31-5.6c-.365-.518-.344-.723.094-1.161q2.259-2.257,4.521-4.512c.515-.513.81-.488,1.271.1A21.579,21.579,0,0,1,281.8,75.433c.065.554-.182.843-.754.847-1.1.008-2.2,0-3.305,0m-2.887-1.271h5.644a20.384,20.384,0,0,0-3.937-9.5c-.142.132-.252.228-.355.33q-1.471,1.468-2.941,2.937c-.685.683-.691.684-.2,1.524a15.164,15.164,0,0,1,1.786,4.711" transform="translate(-238.737 -56.297)"/>
        <path id="Path_10683" data-name="Path 10683" d="M4.053,76.287c-1.1,0-2.2,0-3.305,0-.549,0-.8-.286-.739-.816A21.529,21.529,0,0,1,4.528,64.426c.493-.628.767-.646,1.331-.082q2.245,2.24,4.488,4.482c.413.413.446.624.121,1.086a13.678,13.678,0,0,0-2.358,5.723c-.08.488-.29.649-.8.651-1.087,0-2.174,0-3.261,0m2.831-1.259c.307-.953.538-1.883.905-2.756A26.074,26.074,0,0,1,9.127,69.7c.142-.255-.006-.349-.138-.481Q7.251,67.485,5.51,65.749a3.343,3.343,0,0,0-.276-.221,20.309,20.309,0,0,0-3.919,9.5Z" transform="translate(0 -56.301)"/>
        <path id="Path_10684" data-name="Path 10684" d="M76.373,4.052c0,1.072,0,2.144,0,3.216,0,.563-.151.743-.7.841a13.722,13.722,0,0,0-5.6,2.309c-.544.384-.719.359-1.19-.112q-2.24-2.244-4.48-4.489c-.52-.521-.5-.815.079-1.271A21.494,21.494,0,0,1,75.555.009c.527-.059.81.185.815.739.01,1.1,0,2.2,0,3.3M69.586,9.209a.839.839,0,0,0,.141-.057,14.325,14.325,0,0,1,5.111-2.132c.278-.056.3-.21.3-.441-.007-1.637,0-3.274-.005-4.911,0-.112-.02-.223-.034-.36a20.32,20.32,0,0,0-9.491,3.928l3.979,3.974" transform="translate(-56.377 0)"/>
        <path id="Path_10685" data-name="Path 10685" d="M159.018,109.527c.13.1.249.181.365.269a3.089,3.089,0,1,1-4.92,2.106,3.03,3.03,0,0,1,2.9-2.7.625.625,0,0,0,.632-.412c.841-1.74,1.7-3.468,2.561-5.2.066-.132.117-.32.227-.372a1,1,0,0,1,.675-.141.9.9,0,0,1,.36.582c.035.143-.089.335-.166.493q-1.226,2.5-2.461,5c-.058.119-.112.239-.177.378m-1.479,4.6a1.855,1.855,0,1,0-1.87-1.833,1.878,1.878,0,0,0,1.87,1.833" transform="translate(-135.993 -90.741)"/>
        <path id="Path_10686" data-name="Path 10686" d="M193.16,4.058c0,1.072,0,2.144,0,3.216,0,.563.151.743.7.841a13.722,13.722,0,0,1,5.6,2.309c.544.384.719.359,1.19-.112q2.24-2.244,4.48-4.489c.52-.521.5-.815-.079-1.271A21.494,21.494,0,0,0,193.978.015c-.527-.059-.81.185-.815.739-.01,1.1,0,2.2,0,3.3m6.787,5.157a.84.84,0,0,1-.141-.057A14.325,14.325,0,0,0,194.7,7.025c-.278-.056-.3-.21-.3-.441.007-1.637,0-3.274.005-4.911,0-.112.02-.223.034-.36a20.32,20.32,0,0,1,9.491,3.928l-3.979,3.974" transform="translate(-170.086 -0.005)"/>
      </g>
    </g>
  </g>
</svg>
